<?xml version="1.0" standalone="no"?>
<!DOCTYPE svg PUBLIC "-//W3C//DTD SVG 1.1//EN" "http://www.w3.org/Graphics/SVG/1.1/DTD/svg11.dtd" >
<svg xmlns="http://www.w3.org/2000/svg">
<metadata></metadata>
<defs>
<font id="pt_sans_captionregular" horiz-adv-x="1033" >
<font-face units-per-em="2048" ascent="1536" descent="-512" />
<missing-glyph horiz-adv-x="505" />
<glyph horiz-adv-x="0" />
<glyph unicode="&#xd;" horiz-adv-x="505" />
<glyph unicode=" "  horiz-adv-x="505" />
<glyph unicode="&#x09;" horiz-adv-x="505" />
<glyph unicode="&#xa0;" horiz-adv-x="505" />
<glyph unicode="!" horiz-adv-x="575" d="M201 88q0 51 31.5 80.5t84.5 29.5q52 0 84.5 -29.5t32.5 -80.5q0 -46 -32.5 -77.5t-84.5 -31.5t-84 31.5t-32 77.5zM233 621v598h171v-598l-35 -301h-101z" />
<glyph unicode="&#x22;" horiz-adv-x="652" d="M171 874v345h160l-62 -345h-98zM397 874v345h160l-61 -345h-99z" />
<glyph unicode="#" d="M45 385l30 125h151l56 216h-141l30 125h144l70 268h140l-69 -268h197l69 268h142l-70 -268h144l-33 -125h-144l-56 -216h137l-33 -125h-137l-75 -286h-139l73 286h-197l-73 -286h-141l73 286h-148zM367 510h197l56 216h-197z" />
<glyph unicode="$" d="M139 38l54 146q40 -21 105.5 -38.5t159.5 -22.5v435q-58 25 -114.5 54t-101 69.5t-71.5 97.5t-27 136q0 136 78.5 219t235.5 102v156h137v-153q96 -3 159 -17t113 -36l-50 -143q-35 17 -89 31t-133 19v-399q59 -26 118.5 -56t106.5 -72t75.5 -98t28.5 -134 q0 -144 -84 -234t-245 -114v-160h-137v151q-106 3 -188 20t-131 41zM315 928q0 -70 52.5 -112.5t128.5 -77.5v355q-101 -8 -141 -54.5t-40 -110.5zM557 128q88 10 142.5 56t54.5 133q0 38 -16 67.5t-43 53.5t-62.5 43t-75.5 36v-389z" />
<glyph unicode="%" horiz-adv-x="1485" d="M129 944q0 76 22.5 131.5t62.5 92t95 54t119 17.5q65 0 120 -16.5t95.5 -51.5t63 -91.5t22.5 -135.5q0 -80 -22.5 -136.5t-63 -91.5t-95.5 -51.5t-120 -16.5q-64 0 -119 16.5t-95 51.5t-62.5 91.5t-22.5 136.5zM231 63l995 1178l101 -83l-996 -1181zM282 944 q0 -95 37.5 -139t108.5 -44q70 0 109 40t39 143q0 104 -38 143t-110 39q-69 0 -107.5 -39t-38.5 -143zM824 296q0 76 22.5 132t62.5 92.5t94.5 54t119.5 17.5q64 0 119 -17t96 -51.5t63.5 -91t22.5 -136.5t-22.5 -136.5t-63.5 -91.5t-96 -51.5t-119 -16.5q-65 0 -119.5 16.5 t-94.5 51.5t-62.5 91.5t-22.5 136.5zM977 296q0 -95 37 -139t109 -44q70 0 109 40t39 143q0 104 -38.5 143.5t-109.5 39.5q-70 0 -108 -39.5t-38 -143.5z" />
<glyph unicode="&#x26;" horiz-adv-x="1550" d="M218 329q0 70 25.5 131.5t70.5 116.5t103 100t123 80q-45 62 -77.5 123.5t-32.5 132.5q0 42 16 82.5t50 73t88 52.5t130 20q80 0 135 -19t88 -49.5t47 -69t14 -76.5q0 -72 -60.5 -150t-194.5 -146q66 -101 155 -202t182 -188q21 21 42.5 52.5t40.5 68t36.5 74t29.5 72.5 l125 -65q-10 -30 -31 -69.5t-46 -80.5t-51.5 -78.5t-49.5 -63.5q39 -33 69.5 -56.5t57.5 -41t51.5 -31.5t50.5 -26l-98 -119q-48 25 -106.5 65t-119.5 96q-35 -32 -75.5 -61t-92 -50.5t-114.5 -35.5t-138 -14q-90 0 -170 24t-141 69t-96.5 110.5t-35.5 148.5zM383 336 q0 -50 24.5 -91t65 -70t95.5 -44t116 -15q45 0 90 11t84 27.5t70 38t52 44.5q-52 49 -105 106t-100 113.5t-88 109t-71 92.5q-103 -70 -168 -145.5t-65 -176.5zM595 1010q0 -49 22 -97t59 -99q98 56 136.5 101t38.5 80q0 56 -28.5 88.5t-101.5 32.5q-67 0 -96.5 -29 t-29.5 -77z" />
<glyph unicode="'" horiz-adv-x="424" d="M171 874v345h160l-62 -345h-98z" />
<glyph unicode="(" horiz-adv-x="546" d="M115 423q0 96 16.5 202t54.5 213t100 210t153 191l101 -75q-75 -86 -125.5 -179t-80.5 -188.5t-42.5 -190t-12.5 -183.5q0 -83 14.5 -179t46.5 -192.5t82 -189t119 -166.5l-107 -79q-89 83 -149.5 183.5t-98.5 205.5t-54.5 212.5t-16.5 204.5z" />
<glyph unicode=")" horiz-adv-x="544" d="M5 -306q77 88 127.5 181.5t80 187t41.5 188t12 183.5q0 83 -14.5 179t-46 191.5t-80.5 187t-118 167.5l106 80q87 -83 148 -183.5t98.5 -205.5t54 -212t16.5 -204t-16.5 -203t-55 -212.5t-100.5 -209.5t-152 -192z" />
<glyph unicode="*" horiz-adv-x="673" d="M78 955v110h96l118 -24l-86 82l-51 83l96 55l48 -77l33 -103l37 101l47 79l94 -53l-50 -82l-88 -85l130 24h91v-110h-88l-120 25l87 -87l43 -71l-92 -54l-49 78l-43 109l-33 -104l-47 -78l-100 54l53 78l80 75l-110 -25h-96z" />
<glyph unicode="+" horiz-adv-x="963" d="M75 513v147h332v330h150v-330h333v-147h-333v-332h-150v332h-332z" />
<glyph unicode="," horiz-adv-x="380" d="M80 -181q66 23 100 72t32 101q-46 -14 -82.5 10t-36.5 80q0 45 32.5 73.5t80.5 28.5q61 0 99 -40.5t38 -113.5q0 -68 -20 -118t-51 -85.5t-68.5 -56.5t-74.5 -31z" />
<glyph unicode="-" horiz-adv-x="685" d="M111 428v150h464v-150h-464z" />
<glyph unicode="." horiz-adv-x="413" d="M90 88q0 51 32.5 80.5t84.5 29.5t84.5 -29.5t32.5 -80.5q0 -46 -32.5 -77.5t-84.5 -31.5q-51 0 -84 31.5t-33 77.5z" />
<glyph unicode="/" horiz-adv-x="689" d="M-66 -181l692 1420l130 -58l-695 -1425z" />
<glyph unicode="0" d="M76 609q0 305 111.5 468.5t329.5 163.5q229 0 335.5 -162t106.5 -470q0 -302 -113 -467t-331 -165q-115 0 -197.5 45.5t-135.5 128t-79.5 199.5t-26.5 259zM247 609q0 -106 16 -195.5t48 -156t83 -104t123 -37.5q141 0 206.5 122t65.5 371q0 107 -14 196.5t-46.5 155.5 t-84.5 103.5t-127 37.5q-141 0 -205.5 -123.5t-64.5 -369.5z" />
<glyph unicode="1" d="M125 938l420 301h76v-1093h261v-146h-686v146h266v809l20 107l-77 -87l-207 -139z" />
<glyph unicode="2" d="M113 0v63q42 40 100 98t122 128.5t125.5 149t110.5 159.5t79.5 159.5t30.5 147.5q0 82 -50.5 136t-155.5 54q-73 0 -141 -27.5t-116 -67.5l-72 116q72 58 162.5 91.5t199.5 33.5q162 0 252.5 -84t90.5 -224q0 -88 -36.5 -181.5t-95 -186t-130.5 -183t-145 -173.5l-94 -75 v-6l125 18h406v-146h-768z" />
<glyph unicode="3" d="M160 26l44 143q45 -21 105 -35t135 -14q64 0 118 17.5t92.5 49t60 74.5t21.5 96q0 115 -76.5 170.5t-217.5 55.5h-141v66l267 363l90 76l-128 -15h-366v146h687v-68l-294 -395l-70 -51v-5l66 12q75 -1 139 -26t110.5 -69t73 -106t26.5 -139q0 -97 -36.5 -170 t-99.5 -123.5t-146.5 -76t-179.5 -25.5q-85 0 -156.5 13t-123.5 36z" />
<glyph unicode="4" d="M33 367v73l630 796h117v-733h223v-136h-223v-367h-160v367h-587zM216 489l131 14h273v354l16 138h-6l-64 -113l-258 -311z" />
<glyph unicode="5" d="M139 17l45 139q44 -15 93.5 -24t126.5 -9q131 0 214 64t83 187q0 120 -84 180.5t-234 60.5l-159 -7v611h605v-154h-452v-314l83 3q94 0 168.5 -26.5t127.5 -73t82 -115.5t29 -156q0 -99 -36.5 -174.5t-100.5 -127t-149 -78t-182 -26.5q-84 0 -146 10.5t-114 29.5z" />
<glyph unicode="6" d="M108 416q0 167 49 310.5t134.5 253.5t203.5 178t257 83l33 -132q-104 -13 -190.5 -61t-152 -117t-107 -153.5t-55.5 -171.5q16 23 41.5 45.5t60 40t78 27.5t93.5 10q89 0 161.5 -25t122 -72t76.5 -113.5t27 -149.5q0 -77 -28 -147.5t-80 -125t-129 -87t-173 -32.5 q-95 0 -172.5 30t-133 85.5t-86 137.5t-30.5 186zM268 394q0 -51 15.5 -100.5t49 -88.5t83 -64t115.5 -25q54 0 98.5 19.5t76.5 52.5t50 77t18 92q0 115 -63 174t-191 59q-92 0 -157 -40t-92 -90q-3 -23 -3 -36v-30z" />
<glyph unicode="7" d="M108 1065v154h807v-51l-548 -1168h-166l469 998l84 85l-113 -18h-533z" />
<glyph unicode="8" d="M123 296q0 109 62.5 187.5t191.5 142.5q-46 27 -87 56t-71.5 65.5t-48 81.5t-17.5 103q0 66 26.5 122.5t75 98t118 65t157.5 23.5q79 0 144.5 -21t111.5 -59t71 -89.5t25 -112.5q0 -100 -48.5 -174t-161.5 -144q50 -28 94.5 -58.5t77 -69t50.5 -85t18 -106.5 q0 -75 -27 -137.5t-79 -108.5t-127.5 -72.5t-171.5 -26.5q-93 0 -163 25.5t-120 68t-75.5 101t-25.5 124.5zM280 319q0 -40 16 -76.5t45.5 -64.5t73 -45t100.5 -17q47 0 90.5 13.5t76 37.5t51.5 61.5t19 86.5q0 47 -23 84.5t-60 68t-85 55.5t-99 50q-111 -56 -158 -125 t-47 -129zM315 935q0 -47 21 -84t55 -65.5t79.5 -51.5t93.5 -46q80 57 120 114.5t40 123.5q0 42 -16.5 74t-43 55t-63.5 35t-77 12q-51 0 -89 -14.5t-65 -38.5t-41 -53.5t-14 -60.5z" />
<glyph unicode="9" d="M93 847q0 82 26.5 154.5t79 126t130.5 83.5t181 30q98 0 175 -31.5t131 -89t83 -139t29 -184.5q0 -196 -49.5 -344.5t-137.5 -250t-205.5 -157t-253.5 -68.5l-35 131q110 12 197 53t149.5 104.5t102.5 144.5t56 175q-26 -28 -53 -47.5t-59 -30.5t-71 -15.5t-90 -4.5 q-77 0 -147.5 24.5t-123.5 69.5t-84 112.5t-31 153.5zM259 860q0 -116 71.5 -176.5t184.5 -60.5q93 0 156 30t93 71q4 21 4 36.5v35.5q0 57 -16 113t-48 99t-82.5 70t-119.5 27q-115 0 -179 -65t-64 -180z" />
<glyph unicode=":" horiz-adv-x="475" d="M173 88q0 51 32 80.5t84 29.5t84 -29.5t32 -80.5q0 -46 -32 -77.5t-84 -31.5t-84 31.5t-32 77.5zM173 774q0 50 32 80t84 30t84 -29.5t32 -80.5q0 -46 -32 -77.5t-84 -31.5t-84 31.5t-32 77.5z" />
<glyph unicode=";" horiz-adv-x="481" d="M150 -181q66 23 100 72t32 101q-47 -14 -83.5 10t-36.5 80q0 45 33 73.5t80 28.5q62 0 99.5 -40.5t37.5 -113.5q0 -68 -20 -118t-51 -85.5t-68.5 -56.5t-74.5 -31zM171 774q0 50 32 80t84 30t84.5 -29.5t32.5 -80.5q0 -46 -32.5 -77.5t-84.5 -31.5t-84 31.5t-32 77.5z " />
<glyph unicode="&#x3c;" horiz-adv-x="963" d="M76 522v66l730 412l73 -126l-445 -251l-175 -65l173 -55l455 -249l-70 -121z" />
<glyph unicode="=" horiz-adv-x="963" d="M75 364v146h815v-146h-815zM75 663v146h815v-146h-815z" />
<glyph unicode="&#x3e;" horiz-adv-x="963" d="M76 876l70 124l741 -394v-66l-731 -409l-71 125l446 251l174 64l-172 55z" />
<glyph unicode="?" horiz-adv-x="833" d="M65 1146q73 45 154.5 70t202.5 25q85 0 149.5 -22.5t107.5 -61.5t65 -92t22 -115q0 -81 -26 -139.5t-64 -104t-83.5 -83.5t-84 -80.5t-64.5 -95t-26 -127.5h-139q-7 87 13 150t55 111.5t77.5 86.5t79.5 77t62.5 82t25.5 101q0 77 -46 125.5t-161 48.5q-70 0 -142 -26 t-123 -56zM241 88q0 51 31.5 80.5t84.5 29.5q52 0 84 -29.5t32 -80.5q0 -46 -32 -77.5t-84 -31.5t-84 31.5t-32 77.5z" />
<glyph unicode="@" horiz-adv-x="2023" d="M162 411q0 194 71 352.5t194 271.5t285 174.5t345 61.5q170 0 317.5 -50t256 -141t170 -221t61.5 -291q0 -108 -41.5 -208.5t-113.5 -177.5t-168 -123.5t-204 -46.5q-48 0 -86 11.5t-61.5 38t-30 72t5.5 113.5h-7q-28 -41 -64.5 -83t-80 -76t-95 -55t-108.5 -21 q-46 0 -85.5 19t-70.5 55t-48.5 84.5t-17.5 108.5q0 104 39.5 208.5t107.5 188t157.5 136t189.5 52.5q69 0 112.5 -20t83.5 -48l64 57h74l-98 -491q-21 -110 -14 -162t70 -52t124.5 29.5t109.5 84.5t78 132.5t30 173.5q0 138 -50.5 242.5t-139 176t-211 108t-265.5 36.5 q-155 0 -289 -54t-233 -148.5t-156.5 -224t-57.5 -282.5q0 -152 50 -274.5t145.5 -209t230 -133t302.5 -46.5q56 0 124 13.5t126 37.5l40 -130q-83 -35 -156.5 -47t-160.5 -12q-181 0 -336 52.5t-270 154t-180 248.5t-65 335zM747 306q0 -63 28.5 -110.5t106.5 -47.5 q37 0 77.5 24t79.5 64.5t74.5 90.5t62.5 103l53 236q-31 34 -62.5 48t-80.5 14q-73 0 -134.5 -40t-107 -102t-71.5 -136t-26 -144z" />
<glyph unicode="A" horiz-adv-x="1122" d="M14 0l501 1236h91l503 -1236h-181l-132 319h-482l-130 -319h-170zM366 465h379l-141 346l-47 187h-4l-46 -190z" />
<glyph unicode="B" horiz-adv-x="1115" d="M155 8v1200q71 12 167 19t206 7q75 0 154 -13t143.5 -46t106 -90.5t41.5 -147.5q0 -45 -14.5 -90t-45.5 -84t-77.5 -68.5t-111.5 -43.5v-7q56 -6 108 -27.5t92.5 -58t64.5 -88.5t24 -123q0 -95 -43.5 -163.5t-114.5 -113t-161 -65t-181 -20.5q-31 0 -76 0.5t-95 3.5 t-99.5 7t-87.5 12zM326 143q11 -4 36 -5.5t53.5 -3t57.5 -2.5t52 -1q60 0 114.5 12t96.5 38t67.5 66t25.5 96q0 69 -30.5 110.5t-79.5 63t-110 27.5t-120 6h-163v-407zM326 686h96q33 0 76 2.5t73 5.5q44 12 83 30.5t68.5 44t47 59.5t17.5 77q0 60 -23.5 95.5t-62 54.5 t-87 26t-99.5 7q-61 0 -112 -2.5t-77 -5.5v-394z" />
<glyph unicode="C" horiz-adv-x="1085" d="M101 609q0 171 52.5 291t135.5 195.5t187.5 110.5t207.5 35q115 0 188 -12t123 -31l-38 -150q-85 40 -259 40q-78 0 -152 -25t-132.5 -82t-93 -148.5t-34.5 -223.5q0 -118 33 -207.5t91 -150t137 -90.5t174 -30q85 0 148 15.5t106 39.5l42 -134q-58 -42 -146.5 -58.5 t-187.5 -16.5q-117 0 -222.5 37.5t-185.5 115t-127 196.5t-47 283z" />
<glyph unicode="D" horiz-adv-x="1244" d="M155 -2v1221q35 5 81 7.5t96 4t97.5 2.5t87.5 1q160 0 277.5 -46t195 -128t116 -195t38.5 -247q0 -122 -35.5 -236t-114.5 -203t-201.5 -142.5t-296.5 -53.5q-29 0 -79 1.5t-102 3.5t-96.5 4.5t-63.5 5.5zM329 143q8 -2 33.5 -3t53.5 -1.5t52.5 -1.5t34.5 -1 q131 0 218.5 41t140.5 109t75 153.5t22 178.5q0 78 -21 160t-71 149t-134 110.5t-211 43.5h-52.5t-55 -1.5t-50.5 -3.5t-35 -3v-930z" />
<glyph unicode="E" horiz-adv-x="1018" d="M155 0v1219h737v-151h-563v-370h513v-150h-513v-398h571v-150h-745z" />
<glyph unicode="F" horiz-adv-x="983" d="M155 0v1219h737v-151h-563v-387h522v-150h-522v-531h-174z" />
<glyph unicode="G" horiz-adv-x="1162" d="M101 609q0 170 55 289.5t142 196t194 111.5t213 35q114 0 190.5 -12.5t126.5 -32.5l-42 -148q-90 40 -261 40q-78 0 -156 -24t-139.5 -81t-99.5 -148.5t-38 -225.5q0 -123 32 -214t89.5 -150t135.5 -86.5t171 -27.5q58 0 110.5 11t92.5 32v308l-311 31v102h456v-539 q-32 -24 -75 -42.5t-93 -30t-102 -19t-103 -7.5q-125 0 -232 37.5t-186.5 116t-124.5 197.5t-45 281z" />
<glyph unicode="H" horiz-adv-x="1275" d="M155 0v1219h174v-521h618v521h174v-1219h-174v545h-618v-545h-174z" />
<glyph unicode="I" horiz-adv-x="692" d="M120 0v115h139v988h-139v116h453v-116h-139v-988h139v-115h-453z" />
<glyph unicode="J" horiz-adv-x="565" d="M-61 12l33 144q46 -20 110 -20h6q79 0 104.5 50.5t25.5 139.5v893h174v-940q0 -136 -70.5 -216t-208.5 -80q-17 0 -41 1.5t-48 6t-46.5 9.5t-38.5 12z" />
<glyph unicode="K" horiz-adv-x="1164" d="M155 0v1219h174v-561l80 25l438 536h199l-438 -523l-83 -58l96 -70l484 -568h-219l-472 553h-85v-553h-174z" />
<glyph unicode="L" horiz-adv-x="985" d="M155 0v1219h174v-1066h623v-153h-797z" />
<glyph unicode="M" horiz-adv-x="1510" d="M155 0v1219h131l412 -622l64 -132h4l61 136l392 618h137v-1219h-174v785l19 195h-7l-75 -169l-339 -540h-52l-357 542l-72 165h-8l28 -191v-787h-164z" />
<glyph unicode="N" horiz-adv-x="1279" d="M155 0v1236h97l622 -791l99 -161h9l-22 161v774h165v-1236h-98l-618 791l-105 171h-6l21 -171v-774h-164z" />
<glyph unicode="O" horiz-adv-x="1299" d="M101 609q0 150 37.5 267.5t108 198.5t172 123.5t230.5 42.5q138 0 241.5 -46t172 -129t102.5 -199t34 -258q0 -149 -37 -267t-108.5 -198.5t-173.5 -123.5t-231 -43q-139 0 -242 46.5t-170.5 129t-101.5 199t-34 257.5zM286 609q0 -99 21.5 -186t66 -153t113 -104 t162.5 -38q170 0 268 116t98 365q0 98 -21.5 185t-66.5 153t-113.5 105t-164.5 39q-167 0 -265 -118t-98 -364z" />
<glyph unicode="P" horiz-adv-x="1068" d="M155 0v1206q73 15 159 21.5t170 6.5q88 0 180 -15.5t166.5 -57.5t122.5 -115.5t48 -190.5q0 -110 -43.5 -187.5t-116 -126t-165.5 -71.5t-192 -23q-11 0 -32.5 1t-45 1.5t-45.5 3t-32 3.5v-456h-174zM329 606q8 -3 28 -4t42.5 -3t42.5 -2h30q63 0 123.5 9.5t110.5 37.5 t80.5 78.5t30.5 130.5q0 70 -30 115t-77 71t-105 36t-116 10q-47 0 -91 -2t-69 -9v-468z" />
<glyph unicode="Q" horiz-adv-x="1299" d="M101 609q0 150 37.5 267.5t108 198.5t172 123.5t230.5 42.5q138 0 241.5 -46t172 -129t102.5 -199t34 -258q0 -149 -37 -267t-108.5 -198.5t-173.5 -123.5t-231 -43q-139 0 -242 46.5t-170.5 129t-101.5 199t-34 257.5zM286 609q0 -99 21.5 -186t66 -153t113 -104 t162.5 -38q170 0 268 116t98 365q0 98 -21.5 185t-66.5 153t-113.5 105t-164.5 39q-167 0 -265 -118t-98 -364zM402 -80q52 10 105 10q78 0 157 -18t160 -39t167.5 -39t179.5 -18q40 0 83 4t88 14v-149q-45 -12 -90.5 -16.5t-90.5 -4.5q-96 0 -187.5 18.5t-175.5 40 t-162.5 40t-148.5 18.5q-43 0 -85 -11v150z" />
<glyph unicode="R" horiz-adv-x="1136" d="M155 0v1206q36 7 80.5 12.5t90 9t91 5t85.5 1.5q86 0 167.5 -17.5t143 -57.5t99 -104.5t37.5 -157.5q0 -73 -22.5 -132.5t-62.5 -104.5t-95 -76t-120 -46l91 -61l327 -477h-200l-362 513l-176 25v-538h-174zM329 653h143q63 0 116 13t92 40t61.5 70.5t22.5 105.5 q0 95 -66 149t-191 54h-50t-49.5 -2t-45.5 -3.5t-33 -5.5v-421z" />
<glyph unicode="S" horiz-adv-x="1010" d="M83 45l58 151q43 -23 131 -45.5t195 -22.5q61 0 113 11t91.5 34t61 60t21.5 87q0 72 -47 113.5t-118.5 72t-153 57.5t-153 69t-119 108t-47.5 172q0 148 109 238.5t311 90.5q117 0 214 -17.5t154 -45.5l-55 -146q-43 23 -130 41t-191 18q-118 0 -177.5 -50.5 t-59.5 -116.5q0 -68 47 -109.5t118.5 -73.5t153 -62t153 -73t118.5 -107t47 -163q0 -82 -31.5 -148t-90.5 -113t-142.5 -72.5t-190.5 -25.5q-142 0 -240.5 22t-149.5 46z" />
<glyph unicode="T" horiz-adv-x="1061" d="M33 1065v154h995v-154h-410v-1065h-174v1065h-411z" />
<glyph unicode="U" horiz-adv-x="1235" d="M155 388v831h174v-764q0 -178 77.5 -247.5t229.5 -69.5q146 0 213.5 76.5t67.5 245.5v759h164v-796q0 -113 -32 -195t-91.5 -136.5t-140.5 -80.5t-179 -26q-235 0 -359 101.5t-124 301.5z" />
<glyph unicode="V" horiz-adv-x="1093" d="M-5 1219h191l329 -812l45 -189h4l47 193l313 808h174l-505 -1236h-86z" />
<glyph unicode="W" horiz-adv-x="1588" d="M14 1219h182l234 -791l28 -204h4l31 208l269 787h87l272 -791l32 -204h3l33 208l216 787h170l-371 -1236h-99l-266 791l-37 185h-8l-35 -186l-266 -790h-101z" />
<glyph unicode="X" horiz-adv-x="1179" d="M47 0l440 620l-402 599h207l263 -400l48 -102l45 102l274 400h192l-414 -587l433 -632h-203l-291 425l-54 106l-49 -106l-297 -425h-192z" />
<glyph unicode="Y" horiz-adv-x="1073" d="M12 1219h204l304 -518l30 -111h3l33 115l291 514h185l-434 -740v-479h-173v477z" />
<glyph unicode="Z" horiz-adv-x="1037" d="M68 0v153l656 842l85 70h-741v154h902v-154l-662 -847l-82 -65h744v-153h-902z" />
<glyph unicode="[" horiz-adv-x="584" d="M155 -400v1619h358v-139h-198v-1341h198v-139h-358z" />
<glyph unicode="\" horiz-adv-x="732" d="M-63 1176l133 63l699 -1418l-131 -65z" />
<glyph unicode="]" horiz-adv-x="584" d="M71 -261h198v1341h-198v139h359v-1619h-359v139z" />
<glyph unicode="^" horiz-adv-x="963" d="M106 749l357 487h67l327 -487h-171l-148 229l-45 120l-56 -121l-174 -228h-157z" />
<glyph unicode="_" horiz-adv-x="786" d="M0 -228h787v-136h-787v136z" />
<glyph unicode="`" horiz-adv-x="523" d="M105 1213v41h191l124 -262h-94z" />
<glyph unicode="a" horiz-adv-x="1012" d="M78 244q0 78 34 135.5t88 94t123 54t137 17.5q53 0 90.5 -2t63 -4.5t43 -5t31.5 -3.5q3 26 4.5 44.5t1.5 48.5q0 49 -10 82t-34 53t-63.5 29t-97.5 9q-33 0 -73 -5.5t-80 -15t-79 -23.5t-71 -30l-43 135q156 75 388 75q105 0 168 -27.5t98 -69t46.5 -93t11.5 -101.5 q0 -96 -7 -192.5t-7 -209.5q0 -66 6 -128.5t20 -113.5h-116l-45 139h-17q-19 -26 -46.5 -53t-66 -48t-88 -35t-114.5 -14t-118.5 18.5t-93 51t-62 80.5t-22.5 108zM249 261q0 -70 49.5 -104.5t128.5 -34.5q57 0 101.5 14.5t77 36.5t52 49t30.5 53v139q-14 2 -29.5 5.5 t-39.5 5.5t-56 3.5t-79 1.5q-108 0 -171.5 -38t-63.5 -131z" />
<glyph unicode="b" horiz-adv-x="1094" d="M153 48v1171h161v-418h17q40 69 114.5 103t158.5 34q190 0 288 -116t98 -349q0 -238 -128.5 -363t-361.5 -125q-115 0 -208.5 19t-138.5 44zM314 153q85 -33 206 -33q138 0 219 84.5t81 270.5q0 70 -14 130t-43.5 103.5t-74 68.5t-107.5 25q-56 0 -98.5 -17t-75.5 -48 t-56.5 -70t-36.5 -81v-433z" />
<glyph unicode="c" horiz-adv-x="920" d="M105 456q0 232 112 358t323 126q92 0 160 -16.5t122 -41.5l-42 -130q-46 25 -101.5 38.5t-120.5 13.5q-283 0 -283 -348q0 -66 15.5 -128t50.5 -109.5t91.5 -77.5t138.5 -30q73 0 128 20t91 48l52 -116q-61 -43 -142.5 -65.5t-171.5 -22.5q-115 0 -196 35t-131.5 98 t-73 151.5t-22.5 196.5z" />
<glyph unicode="d" horiz-adv-x="1094" d="M105 450q0 233 119 358t334 125q37 0 66 -2.5t54 -6t49 -10.5t49 -14v319h161v-904q0 -88 2.5 -166t15.5 -152h-106l-40 139h-17q-40 -70 -117.5 -115.5t-179.5 -45.5q-197 0 -293.5 117t-96.5 358zM271 449q0 -73 14 -135t44 -107t78.5 -70.5t120.5 -25.5 q106 0 165 53.5t83 157.5v423q-40 30 -86 41t-122 11q-141 0 -219 -82t-78 -266z" />
<glyph unicode="e" horiz-adv-x="1040" d="M105 456q0 235 115.5 359.5t329.5 124.5q68 0 136 -15t122 -55.5t88 -112t34 -186.5q0 -28 -2 -64.5t-7 -71.5h-653q3 -160 76.5 -242t248.5 -82q73 0 139.5 25.5t103.5 59.5l61 -121q-61 -45 -152 -72.5t-197 -27.5q-114 0 -199 34t-139 97t-79.5 152t-25.5 198z M275 550h501v13q0 129 -56 183q-60 58 -168 58q-122 0 -193.5 -57.5t-83.5 -196.5z" />
<glyph unicode="f" horiz-adv-x="633" d="M42 778v136h154v24q0 85 16 143.5t50 94t88.5 51.5t133.5 16q66 0 115.5 -8t103.5 -27l-35 -130q-45 19 -84 24.5t-76 5.5q-48 0 -78 -9t-46.5 -31t-21.5 -59t-5 -95h268v-136h-268v-778h-161v778h-154z" />
<glyph unicode="g" horiz-adv-x="1091" d="M105 449q0 234 121.5 361.5t361.5 127.5q115 0 198 -14t149 -37v-892q0 -179 -105.5 -267t-309.5 -88q-118 0 -191 14t-125 38l38 144q23 -10 52.5 -21t62.5 -20t67 -14t65 -5q85 0 141 14.5t89 45.5t45 80t12 117v65h-19q-28 -45 -97.5 -73t-168.5 -28q-198 0 -292 107 t-94 345zM275 452q0 -153 56.5 -236t193.5 -83q107 0 167 54t82 140v449q-40 12 -92 19t-118 7q-136 0 -212.5 -86t-76.5 -264z" />
<glyph unicode="h" horiz-adv-x="1115" d="M153 0v1219h161v-418h18q52 63 125.5 101t181.5 38q83 0 144 -18t101 -64.5t59.5 -124t19.5 -193.5v-540h-161v505q0 75 -9 129.5t-34.5 91t-68 54t-107.5 17.5q-45 0 -89 -15.5t-80.5 -43t-62 -67t-37.5 -88.5v-583h-161z" />
<glyph unicode="i" horiz-adv-x="551" d="M166 1131q0 40 31 72.5t82 32.5q50 0 83 -32.5t33 -72.5t-33 -70.5t-83 -30.5q-51 0 -82 30.5t-31 70.5zM198 0v914h161v-914h-161z" />
<glyph unicode="j" horiz-adv-x="542" d="M21 -230h7q53 0 84 14q34 15 52.5 47.5t24.5 80.5t6 114v888h160v-945q0 -170 -63.5 -252.5t-204.5 -82.5h-30.5t-35.5 4v132zM159 1131q0 40 31 72.5t82 32.5q50 0 83 -32.5t33 -72.5t-33 -70.5t-83 -30.5q-51 0 -82 30.5t-31 70.5z" />
<glyph unicode="k" horiz-adv-x="969" d="M153 0v1219h161v-721l90 30l302 386h189l-291 -354h2l-96 -69l110 -79l322 -412h-202l-328 411h-98v-411h-161z" />
<glyph unicode="l" horiz-adv-x="584" d="M174 183v1036h160v-977q0 -71 27 -101t73 -30q28 0 53.5 3.5t62.5 14.5l21 -119q-17 -7 -41.5 -12.5t-51 -11.5t-52.5 -8.5t-47 -2.5q-94 0 -149.5 48t-55.5 160z" />
<glyph unicode="m" horiz-adv-x="1649" d="M153 0v914h110l31 -122h18q56 63 128 105.5t183 42.5q94 0 157.5 -40t96.5 -134q52 80 132.5 127t179.5 47q83 0 141.5 -19t95 -66t54 -127t17.5 -203v-525h-160v525q0 70 -8 120.5t-29 84.5t-58.5 50.5t-97.5 16.5q-99 0 -156.5 -52t-82.5 -157v-588h-160v502 q0 73 -7 128.5t-28 93t-58 55.5t-97 18q-93 0 -154.5 -51.5t-86.5 -130.5v-615h-161z" />
<glyph unicode="n" horiz-adv-x="1115" d="M153 0v914h111l32 -122h16q50 63 131 105.5t195 42.5q79 0 140 -18t102 -64.5t62 -124t21 -195.5v-538h-161v505q0 146 -46.5 219t-167.5 73q-106 0 -176.5 -54.5t-97.5 -139.5v-603h-161z" />
<glyph unicode="o" horiz-adv-x="1098" d="M105 456q0 114 29.5 203.5t87 152t140 95.5t188.5 33q111 0 195 -36.5t139.5 -102t82.5 -153.5t27 -192q0 -111 -30.5 -200t-87 -151.5t-139.5 -96t-187 -33.5q-115 0 -198.5 36.5t-138.5 101.5t-81.5 153t-26.5 190zM275 456q0 -64 14.5 -126t48 -110.5t85.5 -78.5 t129 -30q271 0 272 345q0 68 -15 130.5t-47.5 110.5t-84.5 77.5t-125 29.5q-136 0 -206.5 -86t-70.5 -262z" />
<glyph unicode="p" horiz-adv-x="1096" d="M153 -348v1262h108l31 -117h16q46 68 121.5 105.5t169.5 37.5q198 0 295.5 -110.5t97.5 -352.5q0 -115 -32 -208t-92 -158.5t-146 -100.5t-192 -35q-35 0 -64 2.5t-53.5 9t-49 14t-49.5 19.5v-368h-161zM314 171q40 -28 86.5 -44t119.5 -16q141 0 221.5 92.5t80.5 275.5 q0 147 -59 236t-200 89q-105 0 -164.5 -52t-84.5 -160v-421z" />
<glyph unicode="q" horiz-adv-x="1088" d="M105 449q0 239 124.5 361.5t365.5 122.5q52 0 103 -5.5t96 -13t80.5 -17.5t60.5 -20v-1225h-159l-2 447h-18q-40 -59 -102 -91.5t-161 -32.5q-388 0 -388 474zM275 452q0 -76 13 -138.5t43.5 -107t78.5 -70t118 -25.5q104 0 162.5 52.5t83.5 156.5v442q-80 35 -208 35 q-141 0 -216 -85.5t-75 -259.5z" />
<glyph unicode="r" horiz-adv-x="661" d="M153 0v914h111l32 -122h16q40 68 93 105.5t133 37.5q25 0 57.5 -4.5t65.5 -15.5l-31 -153q-30 9 -57.5 16t-52.5 7q-92 0 -143 -47t-63 -118v-620h-161z" />
<glyph unicode="s" horiz-adv-x="867" d="M94 50l45 140q49 -27 125.5 -53t155.5 -26q85 0 140 31t55 114q0 35 -17 58t-45 40t-64.5 29t-76.5 24q-50 14 -101.5 31t-92 45.5t-67 74t-26.5 114.5q0 136 81 202t228 66q109 0 184 -21t131 -45l-38 -136q-47 23 -112.5 44.5t-143.5 21.5q-85 0 -127 -27.5t-42 -100.5 q0 -30 15.5 -50t41.5 -35t61 -26.5t73 -21.5q52 -13 104 -31.5t96 -49t70.5 -78t26.5 -118.5q0 -129 -86.5 -210t-260.5 -81q-112 0 -194.5 23t-138.5 52z" />
<glyph unicode="t" horiz-adv-x="704" d="M42 778v136h154v184l161 42v-226h275v-136h-275v-466q0 -110 27.5 -155.5t95.5 -45.5q44 0 79.5 10t81.5 25l36 -113q-56 -25 -119 -41.5t-136 -16.5q-122 0 -174 66.5t-52 216.5v520h-154z" />
<glyph unicode="u" horiz-adv-x="1120" d="M153 374v540h161v-503q0 -74 8.5 -129.5t31 -93t62 -57.5t99.5 -20q105 0 171 59.5t101 146.5v597h160v-655q0 -66 5 -134.5t16 -124.5h-108l-41 151h-18q-45 -78 -125.5 -127t-200.5 -49q-80 0 -140 19.5t-101 65.5t-61 122.5t-20 191.5z" />
<glyph unicode="v" horiz-adv-x="930" d="M0 914h188l234 -526l60 -187l58 191l217 522h175l-427 -934h-70z" />
<glyph unicode="w" horiz-adv-x="1462" d="M14 914h176l193 -517l33 -183h16l48 186l211 514h123l151 -346l75 -176l46 -176h12l40 181l171 517h153l-332 -934h-87l-256 591v-1l-46 168l-52 -170v2l-245 -590h-84z" />
<glyph unicode="x" horiz-adv-x="1030" d="M52 0l353 468l-329 446h204l178 -233l60 -124l72 124l184 233h181l-332 -439q87 -116 178 -236.5t177 -238.5h-198l-200 259l-70 131l-71 -131l-202 -259h-185z" />
<glyph unicode="y" horiz-adv-x="923" d="M14 914h190l233 -578l54 -176h22l44 177l190 577h163l-299 -827q-33 -85 -67 -165t-75 -142t-90.5 -99.5t-114.5 -37.5q-69 0 -118 16l27 135q26 -8 51 -8q35 0 64 9t53.5 31.5t44 63t37.5 105.5z" />
<glyph unicode="z" horiz-adv-x="895" d="M83 0v138l452 550l121 90h-573v136h719v-138l-455 -555l-123 -85h578v-136h-719z" />
<glyph unicode="{" horiz-adv-x="666" d="M103 343v132q73 0 112 36t39 112v405q0 84 45.5 138.5t137.5 54.5h174v-140h-98q-99 0 -99 -108v-390q0 -76 -41 -115.5t-93 -47.5v-15q51 -6 92.5 -51.5t41.5 -118.5v-388q0 -54 24 -81t77 -27h96v-139h-174q-85 0 -134 48.5t-49 140.5v399q0 88 -39 121.5t-112 33.5z " />
<glyph unicode="|" horiz-adv-x="448" d="M155 -226v1445h139v-1445h-139z" />
<glyph unicode="}" horiz-adv-x="666" d="M103 -261h95q100 0 100 108v390q0 77 40.5 116t91.5 47v14q-50 7 -91 52.5t-41 118.5v388q0 108 -102 108h-93v140h171q85 0 134.5 -49t49.5 -142v-398q0 -89 40 -122t113 -33v-132q-73 0 -113 -35.5t-40 -113.5v-405q0 -83 -46 -137t-141 -54h-168v139z" />
<glyph unicode="~" horiz-adv-x="963" d="M60 636q83 59 149 81.5t122 22.5q53 0 98.5 -14.5t88 -32t83 -32.5t83.5 -15q35 0 73.5 13t83.5 47l64 -123q-71 -45 -127 -63t-102 -18q-50 0 -93 14.5t-84 33t-81.5 34t-86.5 15.5q-44 0 -94.5 -19.5t-114.5 -66.5z" />
<glyph unicode="&#xa2;" d="M153 455q0 212 96 334.5t279 143.5v163h137v-161q66 -3 119 -16.5t98 -32.5l-46 -132q-42 21 -90 31.5t-95 13.5v-689q60 3 111.5 22t92.5 42l45 -114q-47 -29 -108 -48.5t-127 -28.5v-169h-137v165q-101 7 -172.5 45.5t-116 100t-65.5 145.5t-21 185zM310 455 q0 -58 12 -113.5t41 -101t73 -79t111 -46.5v681q-238 -32 -237 -341z" />
<glyph unicode="&#xa3;" d="M76 0v146h4q59 2 102.5 21t71.5 49.5t41 70t13 80.5q0 49 -10.5 89t-23.5 75h-198v139h126q-23 45 -38.5 97t-15.5 123q0 85 29 150t81 109.5t126 68t166 23.5q116 0 204 -19t144 -44l-52 -148q-40 21 -114 41t-180 20q-110 0 -170 -54.5t-60 -141.5q0 -68 21 -121 t47 -104h298v-139h-232q11 -33 17.5 -69.5t6.5 -78.5q0 -51 -18 -105.5t-53 -91.5l-70 -55v-9l111 24h483v-146h-857z" />
<glyph unicode="&#xa5;" d="M-7 1219h203l306 -518l29 -111h4l33 115l290 514h185l-377 -643h180v-114h-237v-128h237v-115h-237v-219h-174v219h-237v115h237v128h-237v114h178z" />
<glyph unicode="&#xa8;" horiz-adv-x="781" d="M105 1136q0 42 27.5 70t73.5 28q43 0 70 -28t27 -70q0 -40 -27 -67.5t-70 -27.5q-45 0 -73 27.5t-28 67.5zM479 1136q0 42 27 70t72 28t72 -28t27 -70q0 -40 -27 -67.5t-72 -27.5t-72 27.5t-27 67.5z" />
<glyph unicode="&#xa9;" horiz-adv-x="1510" d="M93 502q0 154 51.5 278t141.5 209t211 130t259 45q137 0 257 -45t210.5 -130t143 -209t52.5 -278q0 -155 -52.5 -279t-143 -209t-210.5 -130.5t-257 -45.5q-152 0 -274 45.5t-209 130.5t-133.5 209t-46.5 279zM235 502q0 -128 40 -226t110.5 -165.5t165.5 -102t205 -34.5 q109 0 204 34.5t165.5 102t110.5 165.5t40 226q0 127 -40 225t-110.5 165t-165.5 101.5t-204 34.5q-110 0 -205 -34.5t-165.5 -101.5t-110.5 -165t-40 -225zM440 502q0 170 84.5 262.5t226.5 92.5q34 0 61 -4t51 -10.5t48 -16t52 -22.5l-51 -120q-40 20 -75 28.5t-63 8.5 q-73 0 -120.5 -47.5t-47.5 -171.5q0 -103 46 -161.5t137 -58.5q45 0 80 8.5t64 24.5l42 -117q-42 -25 -97.5 -38.5t-126.5 -13.5q-152 0 -231.5 95.5t-79.5 260.5z" />
<glyph unicode="&#xab;" horiz-adv-x="912" d="M70 450l306 401l104 -90l-177 -237l-92 -72l92 -62l190 -232l-106 -92zM422 452l302 392l101 -88l-176 -234l-91 -70l91 -62l187 -230l-102 -87z" />
<glyph unicode="&#xad;" horiz-adv-x="685" d="M111 428v150h464v-150h-464z" />
<glyph unicode="&#xae;" horiz-adv-x="1307" d="M150 752q0 122 40 216t108.5 157.5t160 96.5t194.5 33q106 0 197.5 -33t159.5 -96.5t107 -157.5t39 -216q0 -121 -40 -214.5t-109 -157t-160 -96.5t-194 -33q-105 0 -197 33t-160 96.5t-107 157t-39 214.5zM279 752q0 -96 30 -167.5t80.5 -118t118.5 -70.5t145 -24 q80 0 148.5 23t118.5 70t78.5 118t28.5 169q0 96 -29.5 167t-81 119t-119.5 71.5t-144 23.5q-82 0 -150.5 -24t-118.5 -72t-77.5 -119t-27.5 -166zM462 512v483q29 9 84 14.5t102 5.5q38 0 73 -7.5t61 -25t41.5 -45.5t15.5 -68q0 -60 -39 -92t-95 -36l54 -25l134 -204h-115 l-130 194l-91 28v-222h-95zM557 790h64q56 0 85.5 17.5t29.5 57.5q0 32 -29 49.5t-81 17.5q-19 0 -37.5 -1t-31.5 -9v-132z" />
<glyph unicode="&#xb4;" horiz-adv-x="500" d="M105 992l111 262h181v-41l-195 -221h-97z" />
<glyph unicode="&#xb8;" horiz-adv-x="565" d="M116 -369l18 92q93 -25 132.5 -9.5t39.5 44.5q0 30 -44 46.5t-128 24.5l94 157h106l-47 -79q85 -13 126.5 -44.5t41.5 -88.5q0 -73 -62 -117.5t-158 -44.5q-40 0 -67 7t-52 12z" />
<glyph unicode="&#xbb;" horiz-adv-x="910" d="M76 756l100 88l313 -379l-301 -392l-101 89l174 233l91 70l-91 63zM420 759l104 92l317 -384l-305 -401l-106 92l179 236l91 71l-91 63z" />
<glyph unicode="&#x2c6;" horiz-adv-x="767" d="M120 1020l244 326h71q54 -84 110 -164t108 -162h-140l-78 120l-45 124l-54 -124l-84 -120h-132z" />
<glyph unicode="&#x2da;" horiz-adv-x="613" d="M116 1189q0 73 51 119t139 46q83 0 140 -41t57 -124q0 -35 -15 -64.5t-40.5 -51.5t-62.5 -35t-79 -13q-83 0 -136.5 43t-53.5 121zM216 1189q0 -35 29 -56.5t61 -21.5q40 0 69 19t29 59t-29.5 60t-68.5 20q-35 0 -62.5 -19t-27.5 -61z" />
<glyph unicode="&#x2dc;" horiz-adv-x="782" d="M116 1211q57 61 102 83t85 22q31 0 60 -11t57.5 -26t57.5 -26.5t62 -11.5q43 0 93 42l39 -84q-46 -48 -87.5 -68t-76.5 -20q-33 0 -62.5 12t-58 26t-58.5 26t-63 12q-28 0 -55 -10.5t-60 -41.5z" />
<glyph unicode="&#x401;" horiz-adv-x="1018" d="M155 0v1219h737v-151h-563v-370h513v-150h-513v-398h571v-150h-745zM218 1384q0 40 28.5 63t78.5 23q49 0 78.5 -23t29.5 -63q0 -38 -29.5 -61.5t-78.5 -23.5q-50 0 -78.5 23.5t-28.5 61.5zM590 1384q0 40 29 63t77 23q50 0 80 -23t30 -63q0 -38 -30 -61.5t-80 -23.5 q-48 0 -77 23.5t-29 61.5z" />
<glyph unicode="&#x402;" horiz-adv-x="1390" d="M33 1065v154h995v-154h-410v-334q25 7 90.5 22t172.5 15q74 0 147.5 -17.5t132 -59.5t94 -113t35.5 -181q0 -209 -116 -310t-332 -101q-63 0 -90.5 2t-40.5 5v151q23 -3 53 -4t82 -1q125 0 192 60t67 186q0 70 -21.5 115t-60 71t-90 36.5t-109.5 10.5q-32 0 -64 -4.5 t-60 -9.5t-50 -11.5t-32 -9.5v-583h-174v1065h-411z" />
<glyph unicode="&#x403;" horiz-adv-x="845" d="M155 0v1219h722v-154h-548v-1065h-174zM373 1309l221 206h229v-40l-309 -166h-141z" />
<glyph unicode="&#x404;" horiz-adv-x="1108" d="M101 609q0 171 52.5 291t135.5 195.5t187.5 110.5t207.5 35q115 0 187.5 -12t122.5 -31l-40 -147q-85 40 -256 40q-72 0 -139.5 -20.5t-123.5 -68t-95 -121t-51 -178.5h573v-150h-576q6 -104 42 -184t93.5 -134t133 -80.5t164.5 -26.5q85 0 148 15t106 40l40 -131 q-58 -42 -144.5 -58.5t-185.5 -16.5q-117 0 -222.5 37.5t-185.5 115t-127 196.5t-47 283z" />
<glyph unicode="&#x405;" horiz-adv-x="1010" d="M83 45l58 151q43 -23 131 -45.5t195 -22.5q61 0 113 11t91.5 34t61 60t21.5 87q0 72 -47 113.5t-118.5 72t-153 57.5t-153 69t-119 108t-47.5 172q0 148 109 238.5t311 90.5q117 0 214 -17.5t154 -45.5l-55 -146q-43 23 -130 41t-191 18q-118 0 -177.5 -50.5 t-59.5 -116.5q0 -68 47 -109.5t118.5 -73.5t153 -62t153 -73t118.5 -107t47 -163q0 -82 -31.5 -148t-90.5 -113t-142.5 -72.5t-190.5 -25.5q-142 0 -240.5 22t-149.5 46z" />
<glyph unicode="&#x406;" horiz-adv-x="692" d="M120 0v115h139v988h-139v116h453v-116h-139v-988h139v-115h-453z" />
<glyph unicode="&#x407;" horiz-adv-x="692" d="M120 0v115h139v988h-139v116h453v-116h-139v-988h139v-115h-453zM129 1380q0 42 27.5 66t69.5 24q40 0 68 -24t28 -66q0 -40 -28 -64t-68 -24q-42 0 -69.5 24t-27.5 64zM372 1380q0 42 28 66t70 24t70 -24t28 -66q0 -40 -28 -64t-70 -24t-70 24t-28 64z" />
<glyph unicode="&#x408;" horiz-adv-x="565" d="M-61 12l33 144q48 -21 116 -20q79 0 104.5 50.5t25.5 139.5v893h174v-940q0 -136 -70.5 -216t-208.5 -80q-17 0 -41 1.5t-48 6t-46.5 9.5t-38.5 12z" />
<glyph unicode="&#x409;" horiz-adv-x="1764" d="M-7 8l22 147q22 -5 42.5 -5t42.5 8t43 26t40 51q26 45 48.5 122t40 195t29 283t16.5 384h717v-465q9 2 30.5 4.5t48.5 4t55 3.5t51 2q90 0 177 -17.5t156 -59.5t111.5 -114t42.5 -182q0 -104 -41 -181.5t-111.5 -128t-166 -75.5t-206.5 -25q-27 0 -66 0.5t-83.5 4 t-89 8.5t-82.5 14v1053h-383q-9 -173 -20.5 -313.5t-28.5 -254.5t-40.5 -201t-58.5 -152q-45 -83 -104 -117.5t-124 -34.5q-36 0 -60 4t-48 12zM1034 144q25 -6 72 -8t93 -2q65 0 123 15t103 46t71 78t26 114q0 69 -28.5 114.5t-74 71.5t-105 35.5t-120.5 9.5 q-15 0 -39.5 -1.5t-48 -3.5t-43.5 -5.5t-29 -4.5v-459z" />
<glyph unicode="&#x40a;" horiz-adv-x="1852" d="M155 0v1219h174v-497h618v497h174v-495q10 2 32 4.5t49 4t54.5 3.5t50.5 2q90 0 177.5 -14.5t156 -54t110.5 -109t42 -178.5q0 -105 -40 -179.5t-110.5 -123.5t-167 -71.5t-208.5 -22.5q-26 0 -65 1.5t-83.5 4t-89 7.5t-82.5 12v560h-618v-570h-174zM1121 144 q25 -5 72.5 -7.5t92.5 -2.5q68 0 126.5 12t102 40t68.5 73t25 110q0 70 -26.5 113t-72 67t-104.5 31.5t-124 7.5q-15 0 -39.5 -1.5t-48 -3.5t-43.5 -5t-29 -5v-429z" />
<glyph unicode="&#x40b;" horiz-adv-x="1428" d="M33 1065v154h995v-154h-410v-376q50 27 134.5 53t192.5 26q80 0 147 -17.5t116 -57.5t76 -106.5t27 -161.5v-425h-175v387q0 231 -231 231q-88 0 -164 -21t-123 -57v-540h-174v1065h-411z" />
<glyph unicode="&#x40c;" horiz-adv-x="1164" d="M155 0v1219h174v-561l80 25l438 536h199l-438 -523l-83 -58l96 -70l484 -568h-219l-472 553h-85v-553h-174zM419 1309l221 206h229v-40l-309 -166h-141z" />
<glyph unicode="&#x40e;" horiz-adv-x="1058" d="M8 1219h201l332 -627l47 -155h11l37 160l246 622h178l-341 -805q-50 -116 -88.5 -197t-79.5 -131.5t-88 -73t-115 -22.5q-62 0 -99.5 9t-72.5 31l50 143q37 -22 69 -26t60 -4q50 0 86 44t64 133zM225 1480l161 36q9 -62 53.5 -94.5t117.5 -32.5t117.5 32.5t53.5 93.5 l146 -32q-23 -96 -99.5 -150t-219.5 -54q-137 0 -225 47.5t-105 153.5z" />
<glyph unicode="&#x40f;" horiz-adv-x="1251" d="M155 0v1219h174v-1066h593v1066h174v-1219h-382l-28 -310h-110l-38 310h-383z" />
<glyph unicode="&#x410;" horiz-adv-x="1122" d="M14 0l501 1236h91l503 -1236h-181l-132 319h-482l-130 -319h-170zM366 465h379l-141 346l-47 187h-4l-46 -190z" />
<glyph unicode="&#x411;" horiz-adv-x="1054" d="M155 12v1207h738v-154h-564v-331q31 6 77 11.5t92 5.5q98 0 185.5 -17.5t154.5 -59.5t107 -111.5t40 -174.5q0 -104 -40.5 -179.5t-108.5 -125.5t-159 -74t-190 -24q-31 0 -73.5 0.5t-88 4t-90 8.5t-80.5 14zM329 144q12 -3 33 -4.5t45.5 -3.5t50.5 -2h50q60 0 113 14 t93 42.5t63.5 72t23.5 103.5q0 76 -26 122.5t-70.5 71.5t-103 33t-121.5 8q-17 0 -38.5 -2t-44.5 -4t-41.5 -5.5t-26.5 -4.5v-441z" />
<glyph unicode="&#x412;" horiz-adv-x="1115" d="M155 8v1200q71 12 167 19t206 7q75 0 154 -13t143.5 -46t106 -90.5t41.5 -147.5q0 -45 -14.5 -90t-45.5 -84t-77.5 -68.5t-111.5 -43.5v-7q56 -6 108 -27.5t92.5 -58t64.5 -88.5t24 -123q0 -95 -43.5 -163.5t-114.5 -113t-161 -65t-181 -20.5q-31 0 -76 0.5t-95 3.5 t-99.5 7t-87.5 12zM326 143q11 -4 36 -5.5t53.5 -3t57.5 -2.5t52 -1q60 0 114.5 12t96.5 38t67.5 66t25.5 96q0 69 -30.5 110.5t-79.5 63t-110 27.5t-120 6h-163v-407zM326 686h96q33 0 76 2.5t73 5.5q44 12 83 30.5t68.5 44t47 59.5t17.5 77q0 60 -23.5 95.5t-62 54.5 t-87 26t-99.5 7q-61 0 -112 -2.5t-77 -5.5v-394z" />
<glyph unicode="&#x413;" horiz-adv-x="845" d="M155 0v1219h722v-154h-548v-1065h-174z" />
<glyph unicode="&#x414;" horiz-adv-x="1280" d="M8 153h136q16 20 48 88.5t64.5 196.5t55 321t20.5 460h726v-1066h174v-376h-119l-30 223h-927l-27 -223h-121v376zM329 153h555v912h-391q-7 -184 -22 -329.5t-37 -257t-48.5 -191.5t-56.5 -134z" />
<glyph unicode="&#x415;" horiz-adv-x="1018" d="M155 0v1219h737v-151h-563v-370h513v-150h-513v-398h571v-150h-745z" />
<glyph unicode="&#x416;" horiz-adv-x="1545" d="M-3 0l410 543l93 66l-89 63l-388 547h201l373 -540h86v540h163v-561l80 25l371 536h193l-376 -530l-78 -57l97 -72l417 -560h-211l-407 557h-86v-557h-163v578l-80 -25l-407 -553h-199z" />
<glyph unicode="&#x417;" horiz-adv-x="1025" d="M76 28l44 150q45 -20 124.5 -35t194.5 -15q53 0 107.5 13.5t98 41.5t70 70.5t26.5 101.5q0 105 -80.5 153.5t-225.5 57.5q-23 2 -40.5 3t-40.5 1h-95v135h30h40.5t52.5 2t52.5 3t40.5 4q95 12 160.5 60t65.5 128q0 53 -20 89t-55.5 58t-82.5 31.5t-99 9.5 q-101 0 -176 -16t-115 -34l-47 138q17 10 53.5 21t84.5 19.5t106.5 14.5t119.5 6q77 0 151.5 -14.5t133 -49.5t95 -92.5t36.5 -144.5q0 -86 -62 -165t-186 -113v-7q134 -20 211 -94t77 -199q0 -99 -43.5 -171.5t-114 -119t-160.5 -69.5t-183 -23q-125 0 -210.5 15t-138.5 36 z" />
<glyph unicode="&#x418;" horiz-adv-x="1294" d="M155 0v1219h174v-812l-15 -132h8l87 137l623 807h108v-1219h-174v806l11 134h-7l-84 -138l-625 -802h-106z" />
<glyph unicode="&#x419;" horiz-adv-x="1294" d="M155 0v1219h174v-812l-15 -132h8l87 137l623 807h108v-1219h-174v806l11 134h-7l-84 -138l-625 -802h-106zM331 1480l161 36q9 -62 53.5 -94.5t117.5 -32.5t117.5 32.5t53.5 93.5l146 -32q-23 -96 -99.5 -150t-219.5 -54q-137 0 -225 47.5t-105 153.5z" />
<glyph unicode="&#x41a;" horiz-adv-x="1164" d="M155 0v1219h174v-561l80 25l438 536h199l-438 -523l-83 -58l96 -70l484 -568h-219l-472 553h-85v-553h-174z" />
<glyph unicode="&#x41b;" horiz-adv-x="1188" d="M-7 8l22 147q22 -5 42.5 -5t42.5 8t43 26t40 51q26 45 48.5 122t40 195t29 283t16.5 384h717v-1219h-174v1065h-383q-9 -173 -20.5 -313.5t-28.5 -254.5t-40.5 -201t-58.5 -152q-45 -83 -104 -117.5t-124 -34.5q-36 0 -60 4t-48 12z" />
<glyph unicode="&#x41c;" horiz-adv-x="1510" d="M155 0v1219h131l412 -622l64 -132h4l61 136l392 618h137v-1219h-174v785l19 195h-7l-75 -169l-339 -540h-52l-357 542l-72 165h-8l28 -191v-787h-164z" />
<glyph unicode="&#x41d;" horiz-adv-x="1275" d="M155 0v1219h174v-521h618v521h174v-1219h-174v545h-618v-545h-174z" />
<glyph unicode="&#x41e;" horiz-adv-x="1299" d="M101 609q0 150 37.5 267.5t108 198.5t172 123.5t230.5 42.5q138 0 241.5 -46t172 -129t102.5 -199t34 -258q0 -149 -37 -267t-108.5 -198.5t-173.5 -123.5t-231 -43q-139 0 -242 46.5t-170.5 129t-101.5 199t-34 257.5zM286 609q0 -99 21.5 -186t66 -153t113 -104 t162.5 -38q170 0 268 116t98 365q0 98 -21.5 185t-66.5 153t-113.5 105t-164.5 39q-167 0 -265 -118t-98 -364z" />
<glyph unicode="&#x41f;" horiz-adv-x="1251" d="M155 0v1219h941v-1219h-174v1065h-593v-1065h-174z" />
<glyph unicode="&#x420;" horiz-adv-x="1068" d="M155 0v1206q73 15 159 21.5t170 6.5q88 0 180 -15.5t166.5 -57.5t122.5 -115.5t48 -190.5q0 -110 -43.5 -187.5t-116 -126t-165.5 -71.5t-192 -23q-11 0 -32.5 1t-45 1.5t-45.5 3t-32 3.5v-456h-174zM329 606q8 -3 28 -4t42.5 -3t42.5 -2h30q63 0 123.5 9.5t110.5 37.5 t80.5 78.5t30.5 130.5q0 70 -30 115t-77 71t-105 36t-116 10q-47 0 -91 -2t-69 -9v-468z" />
<glyph unicode="&#x421;" horiz-adv-x="1085" d="M101 609q0 171 52.5 291t135.5 195.5t187.5 110.5t207.5 35q115 0 188 -12t123 -31l-38 -150q-85 40 -259 40q-78 0 -152 -25t-132.5 -82t-93 -148.5t-34.5 -223.5q0 -118 33 -207.5t91 -150t137 -90.5t174 -30q85 0 148 15.5t106 39.5l42 -134q-58 -42 -146.5 -58.5 t-187.5 -16.5q-117 0 -222.5 37.5t-185.5 115t-127 196.5t-47 283z" />
<glyph unicode="&#x422;" horiz-adv-x="1061" d="M33 1065v154h995v-154h-410v-1065h-174v1065h-411z" />
<glyph unicode="&#x423;" horiz-adv-x="1058" d="M8 1219h201l332 -627l47 -155h11l37 160l246 622h178l-341 -805q-50 -116 -88.5 -197t-79.5 -131.5t-88 -73t-115 -22.5q-62 0 -99.5 9t-72.5 31l50 143q37 -22 69 -26t60 -4q50 0 86 44t64 133z" />
<glyph unicode="&#x424;" horiz-adv-x="1491" d="M75 609q0 117 34 210t95.5 158.5t148 100.5t190.5 35q25 0 61.5 -2t56.5 -8v151h168v-156q35 9 80 12t74 3q91 0 170 -31.5t137.5 -93.5t91.5 -152.5t33 -209.5q0 -121 -37.5 -215t-101 -157.5t-147.5 -96t-179 -32.5q-21 0 -60 3t-61 10v-173h-168v169q-35 -5 -75.5 -7 t-78.5 -2q-91 0 -169.5 29.5t-136.5 89.5t-92 150.5t-34 214.5zM252 609q0 -78 21 -141.5t59.5 -108.5t91.5 -70t116 -25q19 0 59 1t66 10v691q-23 4 -54 5.5t-59 1.5q-63 0 -116.5 -22.5t-95 -68.5t-65 -114t-23.5 -159zM825 269q20 -3 49.5 -4t57.5 -1q62 0 117.5 23 t97.5 67.5t66.5 112.5t24.5 159q0 77 -20 140.5t-56.5 109.5t-89 71.5t-115.5 25.5q-26 0 -67 -1.5t-65 -8.5v-694z" />
<glyph unicode="&#x425;" horiz-adv-x="1179" d="M47 0l440 620l-402 599h207l263 -400l48 -102l45 102l274 400h192l-414 -587l433 -632h-203l-291 425l-54 106l-49 -106l-297 -425h-192z" />
<glyph unicode="&#x426;" horiz-adv-x="1309" d="M155 0v1219h174v-1066h580v1066h174v-1066h176v-376h-121l-27 223h-956z" />
<glyph unicode="&#x427;" horiz-adv-x="1153" d="M133 797v422h173v-385q0 -117 56 -180.5t176 -63.5q88 0 164 21t123 55v553h175v-1219h-175v518q-50 -28 -134.5 -53t-194.5 -25q-81 0 -148.5 19.5t-115.5 63t-73.5 110.5t-25.5 164z" />
<glyph unicode="&#x428;" horiz-adv-x="1669" d="M155 0v1219h174v-1066h420v1066h173v-1066h418v1066h175v-1219h-1360z" />
<glyph unicode="&#x429;" horiz-adv-x="1740" d="M155 0v1219h174v-1066h418v1066h174v-1066h418v1066h174v-1066h178v-376h-121l-27 223h-1388z" />
<glyph unicode="&#x42a;" horiz-adv-x="1207" d="M-3 1065v154h480v-465q8 2 30.5 4.5t50 4t55.5 3.5t50 2q88 0 175.5 -17.5t156 -59.5t111.5 -114t43 -182q0 -103 -40.5 -180t-110.5 -128.5t-167 -76.5t-208 -25q-26 0 -65.5 0.5t-83.5 4t-89.5 8.5t-81.5 14v1053h-306zM477 144q26 -6 73.5 -8t92.5 -2q64 0 122.5 16 t102.5 47t70.5 78t26.5 112q0 69 -28 114.5t-74 71.5t-104.5 35.5t-120.5 9.5q-16 0 -40.5 -1.5t-48.5 -3.5t-44 -5.5t-28 -4.5v-459z" />
<glyph unicode="&#x42b;" horiz-adv-x="1472" d="M155 12v1207h174v-465q10 2 27.5 4.5t39.5 4t45.5 3.5t45.5 2q90 0 176 -17.5t152 -60t105 -114t39 -179.5q0 -105 -37.5 -183t-103.5 -128.5t-158 -75.5t-204 -25q-26 0 -62.5 0.5t-77.5 4t-83 8.5t-78 14zM329 144q25 -6 60.5 -8t80.5 -2q65 0 120.5 16t96.5 47t64 78 t23 110q0 70 -26 115t-68 71t-99 36.5t-119 10.5q-34 0 -74 -5t-59 -10v-459zM1144 0v1219h174v-1219h-174z" />
<glyph unicode="&#x42c;" horiz-adv-x="1059" d="M155 12v1207h174v-465q8 2 30.5 4.5t49 4t54.5 3.5t50 2q91 0 178 -17.5t155.5 -59.5t111.5 -114t43 -182q0 -104 -41 -181.5t-111.5 -128t-166.5 -75.5t-207 -25q-26 0 -65 0.5t-83.5 4t-89 8.5t-82.5 14zM329 144q25 -6 72 -8t94 -2q64 0 122.5 15t102.5 46t70.5 78 t26.5 114q0 69 -28 114.5t-74.5 71.5t-105.5 35.5t-120 9.5q-16 0 -40 -1.5t-48 -3.5t-44 -5.5t-28 -4.5v-459z" />
<glyph unicode="&#x42d;" horiz-adv-x="1098" d="M78 26l45 150q44 -21 114.5 -34.5t150.5 -13.5q75 0 148 21.5t131.5 70.5t97.5 129.5t48 195.5h-533v149h531q-17 203 -126.5 299.5t-284.5 97.5q-92 2 -163 -17t-114 -44l-41 140q57 33 147 52t189 19q122 0 227.5 -35t183.5 -110.5t123.5 -195.5t45.5 -291 q0 -172 -52.5 -292.5t-138.5 -196t-198.5 -109.5t-232.5 -34q-96 0 -171.5 15t-126.5 34z" />
<glyph unicode="&#x42e;" horiz-adv-x="1701" d="M155 0v1219h174v-521h226q20 261 153.5 402t372.5 141q138 0 237 -45t162 -129t92 -200t29 -258q0 -300 -131 -466t-389 -166q-129 0 -224.5 41.5t-161 115t-100.5 178t-42 233.5h-224v-545h-174zM740 609q0 -97 18 -185t58.5 -154t105.5 -104t159 -38q169 0 252.5 116 t83.5 365q0 97 -16.5 184.5t-55.5 153.5t-104 105t-160 39q-169 0 -255 -118t-86 -364z" />
<glyph unicode="&#x42f;" horiz-adv-x="1085" d="M43 0l294 425l115 77q-68 11 -125.5 38.5t-100 70.5t-65.5 102.5t-23 137.5q0 106 40 179t108 118.5t160 65.5t197 20q64 0 141.5 -6t147.5 -22v-1206h-175v518l-186 -38l-325 -480h-203zM322 853q0 -64 24.5 -108.5t67 -71.5t99.5 -39.5t120 -12.5h124v453q-24 7 -52 9 t-73 2q-62 0 -117 -11t-98 -36.5t-69 -70.5t-26 -114z" />
<glyph unicode="&#x430;" horiz-adv-x="1012" d="M78 244q0 78 34 135.5t88 94t123 54t137 17.5q53 0 90.5 -2t63 -4.5t43 -5t31.5 -3.5q3 26 4.5 44.5t1.5 48.5q0 49 -10 82t-34 53t-63.5 29t-97.5 9q-33 0 -73 -5.5t-80 -15t-79 -23.5t-71 -30l-43 135q156 75 388 75q105 0 168 -27.5t98 -69t46.5 -93t11.5 -101.5 q0 -96 -7 -192.5t-7 -209.5q0 -66 6 -128.5t20 -113.5h-116l-45 139h-17q-19 -26 -46.5 -53t-66 -48t-88 -35t-114.5 -14t-118.5 18.5t-93 51t-62 80.5t-22.5 108zM249 261q0 -70 49.5 -104.5t128.5 -34.5q57 0 101.5 14.5t77 36.5t52 49t30.5 53v139q-14 2 -29.5 5.5 t-39.5 5.5t-56 3.5t-79 1.5q-108 0 -171.5 -38t-63.5 -131z" />
<glyph unicode="&#x431;" horiz-adv-x="1105" d="M111 538q0 156 17.5 266t51.5 183t82 116t107 65.5t130 31t150 16.5q102 8 162.5 18t98.5 37l18 -141q-40 -27 -107 -38t-188 -19q-83 -5 -148 -19t-114 -49t-78.5 -100.5t-40.5 -171.5l17 -4q65 87 146 124t200 37q182 0 284 -110t102 -320q0 -120 -30.5 -212 t-88 -151.5t-139.5 -90.5t-185 -31q-222 0 -334.5 136t-112.5 427zM282 435q0 -66 16 -124.5t50 -102.5t85.5 -70.5t123.5 -26.5q273 0 273 333q0 66 -14.5 122.5t-45 98t-78.5 65.5t-112 24q-157 0 -227.5 -83t-70.5 -236z" />
<glyph unicode="&#x432;" horiz-adv-x="1012" d="M153 2v912l66 3q56 4 122 8.5t154 4.5q202 0 289.5 -56.5t87.5 -168.5q0 -62 -42.5 -123.5t-135.5 -88.5v-20q115 -23 165 -76.5t50 -142.5q0 -138 -113 -203t-341 -65q-77 0 -145 4.5t-132 9.5q-7 0 -12.5 1t-12.5 1zM314 125q38 -5 74.5 -7.5t90.5 -2.5q137 0 198 35.5 t61 117.5q0 33 -12 61t-40 47t-75.5 30.5t-117.5 11.5h-179v-293zM314 528h198q38 0 73 10t63 29t44.5 45t16.5 54q0 74 -50 102.5t-170 28.5q-40 0 -81 -2.5t-94 -4.5v-262z" />
<glyph unicode="&#x433;" horiz-adv-x="741" d="M153 0v914h588v-136h-427v-778h-161z" />
<glyph unicode="&#x434;" horiz-adv-x="1085" d="M0 136h116q17 21 44.5 73t54 145t46 230.5t21.5 329.5h615v-778h148v-366h-110l-28 230h-769l-32 -230h-106v366zM282 136h454v642h-309q-5 -78 -16 -167t-29 -175t-42.5 -164.5t-57.5 -135.5z" />
<glyph unicode="&#x435;" horiz-adv-x="1040" d="M105 456q0 235 115.5 359.5t329.5 124.5q68 0 136 -15t122 -55.5t88 -112t34 -186.5q0 -28 -2 -64.5t-7 -71.5h-653q3 -160 76.5 -242t248.5 -82q73 0 139.5 25.5t103.5 59.5l61 -121q-61 -45 -152 -72.5t-197 -27.5q-114 0 -199 34t-139 97t-79.5 152t-25.5 198z M275 550h501q3 139 -56.5 196.5t-167.5 57.5q-122 0 -193.5 -57.5t-83.5 -196.5z" />
<glyph unicode="&#x436;" horiz-adv-x="1347" d="M10 0l305 412l79 61l-110 75l-251 366h174l266 -396h115v396h157v-414l104 28l269 386h172l-263 -364l-83 -66l107 -77l286 -407h-193l-286 411h-113v-411h-157v432l-104 -28l-286 -404h-188z" />
<glyph unicode="&#x437;" horiz-adv-x="897" d="M83 35l42 127q47 -25 113 -35.5t145 -10.5q241 0 240 152q0 68 -57.5 102.5t-199.5 34.5h-108v123h134q38 0 74 10t63.5 28.5t44 44t16.5 54.5q0 73 -54 101t-164 28q-76 0 -139.5 -16.5t-103.5 -34.5l-44 122q113 65 340 65q164 0 247.5 -58t83.5 -167q0 -30 -11.5 -61 t-34 -60t-55 -52.5t-74.5 -35.5v-19q119 -21 166 -77.5t47 -147.5q0 -57 -26.5 -106.5t-78 -86t-131 -58t-184.5 -21.5q-103 0 -169.5 14t-121.5 41z" />
<glyph unicode="&#x438;" horiz-adv-x="1098" d="M153 0v914h161v-540l-13 -160h19l80 155l420 545h125v-914h-160v522l24 181h-19l-85 -170l-428 -533h-124z" />
<glyph unicode="&#x439;" horiz-adv-x="1098" d="M153 0v914h161v-540l-13 -160h19l80 155l420 545h125v-914h-160v522l24 181h-19l-85 -170l-428 -533h-124zM258 1194l142 45q9 -38 24.5 -60.5t36.5 -34t48 -14t56 -2.5q30 0 57 3.5t48 15.5t37 33t24 58l125 -37q-20 -103 -100.5 -144.5t-193.5 -41.5q-54 0 -104.5 8.5 t-91 29.5t-69.5 55t-39 86z" />
<glyph unicode="&#x43a;" horiz-adv-x="952" d="M153 0v914h161v-416l95 32l312 384h176l-298 -356h2l-94 -67l113 -79l322 -412h-202l-328 411h-98v-411h-161z" />
<glyph unicode="&#x43b;" horiz-adv-x="1016" d="M-10 8l24 147q23 -7 51 -7q41 0 74.5 30.5t57.5 114t39.5 233.5t22.5 388h605v-914h-161v778h-296l-3 -52q-12 -173 -28.5 -309.5t-48 -231.5t-84 -144t-135.5 -49q-38 0 -68 4t-50 12z" />
<glyph unicode="&#x43c;" horiz-adv-x="1309" d="M153 0v914h167l273 -402l67 -127l73 130l256 399h167v-914h-156v517l10 186h-21l-79 -143l-234 -346h-55l-247 346l-70 143h-18l15 -185v-518h-148z" />
<glyph unicode="&#x43d;" horiz-adv-x="1085" d="M153 0v914h161v-373h459v373h160v-914h-160v399h-459v-399h-161z" />
<glyph unicode="&#x43e;" horiz-adv-x="1098" d="M105 456q0 114 29.5 203.5t87 152t140 95.5t188.5 33q111 0 195 -36.5t139.5 -102t82.5 -153.5t27 -192q0 -111 -30.5 -200t-87 -151.5t-139.5 -96t-187 -33.5q-115 0 -198.5 36.5t-138.5 101.5t-81.5 153t-26.5 190zM275 456q0 -64 14.5 -126t48 -110.5t85.5 -78.5 t129 -30q271 0 272 345q0 68 -15 130.5t-47.5 110.5t-84.5 77.5t-125 29.5q-136 0 -206.5 -86t-70.5 -262z" />
<glyph unicode="&#x43f;" horiz-adv-x="1075" d="M153 0v914h769v-914h-160v778h-448v-778h-161z" />
<glyph unicode="&#x440;" horiz-adv-x="1096" d="M153 -348v1262h108l31 -117h16q46 68 121.5 105.5t169.5 37.5q198 0 295.5 -110.5t97.5 -352.5q0 -115 -32 -208t-92 -158.5t-146 -100.5t-192 -35q-35 0 -64 2.5t-53.5 9t-49 14t-49.5 19.5v-368h-161zM314 171q40 -28 86.5 -44t119.5 -16q141 0 221.5 92.5t80.5 275.5 q0 147 -59 236t-200 89q-105 0 -164.5 -52t-84.5 -160v-421z" />
<glyph unicode="&#x441;" horiz-adv-x="920" d="M105 456q0 232 112 358t323 126q92 0 160 -16.5t122 -41.5l-42 -130q-46 25 -101.5 38.5t-120.5 13.5q-283 0 -283 -348q0 -66 15.5 -128t50.5 -109.5t91.5 -77.5t138.5 -30q73 0 128 20t91 48l52 -116q-61 -43 -142.5 -65.5t-171.5 -22.5q-115 0 -196 35t-131.5 98 t-73 151.5t-22.5 196.5z" />
<glyph unicode="&#x442;" horiz-adv-x="793" d="M0 778v136h794v-136h-317v-778h-160v778h-317z" />
<glyph unicode="&#x443;" horiz-adv-x="923" d="M14 914h190l233 -578l54 -176h22l44 177l190 577h163l-299 -827q-33 -85 -67 -165t-75 -142t-90.5 -99.5t-114.5 -37.5q-69 0 -118 16l27 135q26 -8 51 -8q35 0 64 9t53.5 31.5t44 63t37.5 105.5z" />
<glyph unicode="&#x444;" horiz-adv-x="1392" d="M94 456q0 228 108 352t313 124q25 0 50 -2t53 -9v298h156v-300q45 8 75 10.5t53 2.5q196 0 296.5 -108t100.5 -349q0 -111 -27.5 -203.5t-78.5 -158t-127 -102t-171 -36.5q-19 0 -56 5t-65 13v-341h-156v343q-42 -14 -79 -17t-67 -3q-181 0 -279.5 119.5t-98.5 361.5z M258 456q0 -74 14.5 -139t47 -112t81 -73.5t116.5 -26.5q23 0 46 1.5t58 8.5v675q-31 7 -52 9.5t-49 2.5q-125 0 -193.5 -84.5t-68.5 -261.5zM771 111q26 -5 51 -5.5t55 -0.5q129 0 193.5 95.5t64.5 274.5q0 75 -13.5 136t-45 103.5t-83 65t-126.5 22.5q-28 0 -47 -1.5 t-49 -10.5v-679z" />
<glyph unicode="&#x445;" horiz-adv-x="1030" d="M52 0l353 468l-329 446h204l178 -233l60 -124l72 124l184 233h181l-332 -439q87 -116 178 -236.5t177 -238.5h-198l-200 259l-70 131l-71 -131l-202 -259h-185z" />
<glyph unicode="&#x446;" horiz-adv-x="1096" d="M153 0v914h161v-778h440v778h160v-778h148v-366h-108l-30 230h-771z" />
<glyph unicode="&#x447;" horiz-adv-x="998" d="M105 646v268h159v-225q0 -56 6.5 -99t26.5 -74.5t55.5 -48.5t92.5 -17q89 0 149 20.5t92 44.5v399h160v-914h-160v388q-33 -21 -101 -47t-181 -26q-73 0 -129.5 16t-94 54t-56.5 101.5t-19 159.5z" />
<glyph unicode="&#x448;" horiz-adv-x="1490" d="M153 0v914h161v-778h351v778h160v-778h351v778h161v-914h-1184z" />
<glyph unicode="&#x449;" horiz-adv-x="1517" d="M153 0v914h161v-778h351v778h160v-778h351v778h161v-778h146v-378h-106l-30 242h-1194z" />
<glyph unicode="&#x44a;" horiz-adv-x="1014" d="M10 778v136h385v-350q56 9 104.5 11.5t85.5 2.5q103 0 175 -21t117 -57.5t65.5 -86t20.5 -107.5q0 -166 -110 -241t-341 -75q-73 0 -141 1.5t-136 6.5v780h-225zM395 136q75 -10 150 -11q127 0 187 44.5t60 122.5q0 70 -58 117t-184 47q-35 0 -75 -3t-80 -11v-306z" />
<glyph unicode="&#x44b;" horiz-adv-x="1342" d="M153 -2v916h161v-350q56 9 103.5 11.5t85.5 2.5q101 0 169.5 -21t110.5 -57.5t59.5 -86t17.5 -107.5q0 -166 -101 -241t-329 -75q-73 0 -141 1.5t-136 6.5zM314 136q73 -10 149 -11q125 0 175.5 43.5t50.5 123.5q0 70 -49.5 117t-171.5 47q-33 0 -73.5 -3t-80.5 -11v-306 zM1028 0v914h161v-914h-161z" />
<glyph unicode="&#x44c;" horiz-adv-x="930" d="M153 -2v916h161v-350q56 9 102.5 11.5t83.5 2.5q104 0 176.5 -21t117.5 -57.5t65 -86t20 -107.5q0 -166 -109.5 -241t-342.5 -75q-73 0 -139.5 1.5t-134.5 6.5zM314 136q73 -10 148 -11q127 0 187 44.5t60 122.5q0 70 -58.5 117t-183.5 47q-33 0 -73 -3t-80 -11v-306z " />
<glyph unicode="&#x44d;" horiz-adv-x="945" d="M83 35l45 132q46 -24 112 -40t132 -16q141 0 213.5 67.5t84.5 215.5h-421v136h419q-10 124 -82.5 199t-208.5 75q-81 0 -141 -21.5t-100 -46.5l-53 119q61 40 141 62.5t188 22.5q110 0 191 -33t134 -95.5t78.5 -152t25.5 -203.5q0 -232 -118.5 -356.5t-325.5 -124.5 q-94 0 -177.5 15t-136.5 45z" />
<glyph unicode="&#x44e;" horiz-adv-x="1463" d="M153 0v914h161v-374h214q17 189 119 294.5t302 105.5q109 0 186.5 -35.5t127 -100t73 -153t23.5 -195.5q0 -226 -102.5 -353.5t-311.5 -127.5q-108 0 -184.5 31.5t-127 87.5t-75.5 135t-33 175h-211v-404h-161zM686 456q0 -71 12.5 -134t41.5 -109.5t79.5 -74 t127.5 -27.5q131 0 186.5 84t55.5 261q0 70 -11.5 133.5t-39 111.5t-74.5 75.5t-119 27.5q-137 0 -198 -84t-61 -264z" />
<glyph unicode="&#x44f;" horiz-adv-x="1005" d="M70 0l229 299v-1l98 66q-122 13 -192.5 85.5t-70.5 176.5q0 82 31 141.5t90 98t141.5 55.5t184.5 17q67 0 139 -8.5t133 -22.5v-907h-160v360l-165 -23l-260 -337h-198zM304 628q0 -87 78 -130t203 -40l108 2v329q-28 8 -64 10.5t-61 2.5q-131 0 -197.5 -41.5 t-66.5 -132.5z" />
<glyph unicode="&#x451;" horiz-adv-x="1040" d="M105 456q0 235 115.5 359.5t329.5 124.5q68 0 136 -15t122 -55.5t88 -112t34 -186.5q0 -28 -2 -64.5t-7 -71.5h-653q3 -160 76.5 -242t248.5 -82q73 0 139.5 25.5t103.5 59.5l61 -121q-61 -45 -152 -72.5t-197 -27.5q-114 0 -199 34t-139 97t-79.5 152t-25.5 198z M246 1101q0 42 27.5 70t73.5 28q43 0 70 -28t27 -70q0 -40 -27 -67.5t-70 -27.5q-45 0 -73 27.5t-28 67.5zM275 550h501q3 139 -56.5 196.5t-167.5 57.5q-122 0 -193.5 -57.5t-83.5 -196.5zM620 1101q0 42 27 70t72 28t72 -28t27 -70q0 -40 -27 -67.5t-72 -27.5t-72 27.5 t-27 67.5z" />
<glyph unicode="&#x452;" horiz-adv-x="1106" d="M0 799v115h169v305h160v-305h292v-115h-292v-282h19q54 63 127 99.5t181 36.5q84 0 146 -18.5t102 -64.5t59 -123.5t19 -197.5v-291q0 -161 -58.5 -239t-190.5 -78q-35 0 -73 5v131q53 -1 84.5 12t49 40.5t23 71t5.5 101.5v217q0 73 -10 128t-35 93.5t-68 57.5t-108 19 q-47 0 -91.5 -16.5t-81 -46t-63 -70.5t-36.5 -90v-294h-160v799h-169z" />
<glyph unicode="&#x453;" horiz-adv-x="741" d="M153 0v914h588v-136h-427v-778h-161zM352 992l111 262h181v-41l-195 -221h-97z" />
<glyph unicode="&#x454;" horiz-adv-x="985" d="M105 456q0 115 34 205.5t94.5 151.5t147 93t189.5 32q97 0 168 -14.5t126 -39.5l-44 -135q-48 25 -106 39t-122 14q-136 0 -217 -65t-100 -206h461v-136h-461q7 -59 29 -111.5t61.5 -90.5t99 -60t143.5 -22q69 0 128.5 21t99.5 47l45 -118q-62 -40 -147 -63t-176 -23 q-114 0 -199 35t-142 98t-84.5 151.5t-27.5 196.5z" />
<glyph unicode="&#x455;" horiz-adv-x="867" d="M94 50l45 140q49 -27 125.5 -53t155.5 -26q85 0 140 31t55 114q0 35 -17 58t-45 40t-64.5 29t-76.5 24q-50 14 -101.5 31t-92 45.5t-67 74t-26.5 114.5q0 136 81 202t228 66q109 0 184 -21t131 -45l-38 -136q-47 23 -112.5 44.5t-143.5 21.5q-85 0 -127 -27.5t-42 -100.5 q0 -30 15.5 -50t41.5 -35t61 -26.5t73 -21.5q52 -13 104 -31.5t96 -49t70.5 -78t26.5 -118.5q0 -129 -86.5 -210t-260.5 -81q-112 0 -194.5 23t-138.5 52z" />
<glyph unicode="&#x456;" horiz-adv-x="551" d="M161 1133q0 40 31 72.5t82 32.5q50 0 83 -32.5t33 -72.5t-33 -70.5t-83 -30.5q-51 0 -82 30.5t-31 70.5zM198 0v914h161v-914h-161z" />
<glyph unicode="&#x457;" horiz-adv-x="586" d="M70 1095q0 41 24 68.5t68 27.5q45 0 68.5 -27.5t23.5 -68.5q0 -38 -23.5 -64t-68.5 -26q-44 0 -68 26t-24 64zM218 0v914h159v-914h-159zM332 1095q0 41 23.5 68.5t67.5 27.5q45 0 69.5 -27.5t24.5 -68.5q0 -38 -24.5 -64t-69.5 -26q-43 0 -67 26t-24 64z" />
<glyph unicode="&#x458;" horiz-adv-x="542" d="M21 -230q58 -1 91.5 14t52 47.5t24.5 80.5t6 114v888h160v-945q0 -170 -63.5 -252.5t-204.5 -82.5h-30.5t-35.5 4v132zM157 1131q0 40 31 72.5t82 32.5q50 0 83 -32.5t33 -72.5t-33 -70.5t-83 -30.5q-51 0 -82 30.5t-31 70.5z" />
<glyph unicode="&#x459;" horiz-adv-x="1480" d="M-10 8l24 147q23 -7 51 -7q41 0 74.5 30.5t57.5 114t39.5 233.5t22.5 388h605v-350q56 9 102.5 11.5t83.5 2.5q104 0 176.5 -21t117.5 -57.5t65 -86t20 -107.5q0 -166 -109.5 -241t-342.5 -75q-73 0 -139.5 1.5t-134.5 6.5v780h-296l-3 -52q-12 -173 -28.5 -309.5 t-48 -231.5t-84 -144t-135.5 -49q-38 0 -68 4t-50 12zM864 136q73 -10 148 -11q127 0 187 44.5t60 122.5q0 70 -58.5 117t-183.5 47q-34 0 -73.5 -3t-79.5 -11v-306z" />
<glyph unicode="&#x45a;" horiz-adv-x="1593" d="M153 0v914h161v-371h478v371h160v-329q65 12 119.5 16.5t91.5 4.5q108 0 180 -23t116.5 -62t64 -91.5t19.5 -110.5q0 -173 -107 -251t-353 -78q-73 0 -146 5t-145 10v395h-478v-400h-161zM952 138q48 -7 90.5 -10t76.5 -3q143 0 198 44.5t55 134.5q0 39 -12.5 69.5 t-41 52t-75.5 33t-117 11.5q-35 0 -79 -3.5t-95 -14.5v-314z" />
<glyph unicode="&#x45b;" horiz-adv-x="1101" d="M0 799v115h164v307h160v-307h297v-115h-297v-282h21q56 63 128 98.5t180 35.5q83 0 144 -17.5t101 -63t59.5 -122.5t19.5 -196v-252h-160v216q0 75 -10 130.5t-35 93t-68 56.5t-109 19q-47 0 -90 -16.5t-80 -46t-63 -68.5t-38 -86v-298h-160v799h-164z" />
<glyph unicode="&#x45c;" horiz-adv-x="952" d="M153 0v914h161v-416l95 32l312 384h176l-298 -356h2l-94 -67l113 -79l322 -412h-202l-328 411h-98v-411h-161zM420 992l111 262h181v-41l-195 -221h-97z" />
<glyph unicode="&#x45e;" horiz-adv-x="923" d="M14 914h190l233 -578l54 -176h22l44 177l190 577h163l-299 -827q-33 -85 -67 -165t-75 -142t-90.5 -99.5t-114.5 -37.5q-69 0 -118 16l27 135q26 -8 51 -8q35 0 64 9t53.5 31.5t44 63t37.5 105.5zM193 1194l142 45q9 -38 24.5 -60.5t36.5 -34t48 -14t56 -2.5q30 0 57 3.5 t48 15.5t37 33t24 58l125 -37q-20 -103 -100.5 -144.5t-193.5 -41.5q-54 0 -104.5 8.5t-91 29.5t-69.5 55t-39 86z" />
<glyph unicode="&#x45f;" horiz-adv-x="1075" d="M153 0v914h161v-778h448v778h160v-914h-294l-27 -310h-110l-39 310h-299z" />
<glyph unicode="&#x462;" horiz-adv-x="1186" d="M0 949v142h282v131h174v-131h391v-142h-391v-198q11 1 32.5 3.5t48.5 5t55 4.5t51 2q90 0 177 -17.5t156 -59t110.5 -113t41.5 -179.5q0 -105 -41 -183t-111.5 -128.5t-166 -75.5t-206.5 -25q-27 0 -66 0.5t-83.5 4t-89 8.5t-82.5 14v937h-282zM456 144q25 -6 72.5 -8 t94.5 -2q65 0 123 15t102 46t70 78t26 112q0 70 -28.5 115t-74 71t-104 35.5t-121.5 9.5q-15 0 -39.5 -1.5t-48 -3.5t-43.5 -5t-29 -5v-457z" />
<glyph unicode="&#x463;" horiz-adv-x="1002" d="M0 789v125h224v305h161v-305h321v-125h-321v-225q60 7 107.5 10.5t82.5 3.5q102 0 173.5 -21t116.5 -57.5t65 -87t20 -108.5q0 -164 -109.5 -239t-342.5 -75q-68 0 -137.5 1t-136.5 6v792h-224zM385 134q43 -5 80 -7t68 -2q131 0 189 42t58 125q0 75 -57.5 119.5 t-181.5 44.5q-34 0 -74 -3t-82 -11v-308z" />
<glyph unicode="&#x472;" horiz-adv-x="1299" d="M101 609q0 150 37.5 267.5t108 198.5t172 123.5t230.5 42.5q138 0 241.5 -46t172 -129t102.5 -199t34 -258q0 -149 -37 -267t-108.5 -198.5t-173.5 -123.5t-231 -43q-139 0 -242 46.5t-170.5 129t-101.5 199t-34 257.5zM286 543q6 -87 31.5 -163.5t71 -132.5t110 -87.5 t150.5 -31.5q157 0 254.5 100.5t111.5 314.5h-729zM287 689h728q-9 84 -35 157t-71 127.5t-110 86t-150 31.5q-153 0 -249.5 -98t-112.5 -304z" />
<glyph unicode="&#x473;" horiz-adv-x="1096" d="M105 456q0 230 114.5 357t330.5 127q111 0 195 -35.5t138.5 -100t81.5 -153t27 -195.5q0 -227 -115.5 -354t-326.5 -127q-115 0 -199.5 36t-139.5 99.5t-80.5 152.5t-25.5 193zM274 513h548q-21 145 -91 218t-181 73q-52 0 -99 -15t-85.5 -49.5t-62.5 -90.5t-29 -136z M275 399q14 -136 89.5 -212t185.5 -76q48 0 93.5 16t82 50t61 88.5t32.5 133.5h-544z" />
<glyph unicode="&#x474;" horiz-adv-x="1146" d="M-8 1219h191l329 -812l46 -189h5l30 193l143 436q38 115 72 190.5t72.5 118.5t85.5 59.5t114 16.5q66 0 105 -11t74 -30l-48 -143q-38 21 -70 26.5t-61 5.5q-51 0 -86 -37.5t-70 -140.5l-332 -919h-89z" />
<glyph unicode="&#x475;" horiz-adv-x="1012" d="M14 914h184l236 -524l55 -211l14 2l52 211l83 189q31 75 61 139t66 110.5t78.5 73t98.5 26.5q35 0 64.5 -6.5t55.5 -14.5l-26 -136q-19 6 -34 10t-30 4q-37 0 -72.5 -30.5t-74.5 -108.5l-307 -668h-69z" />
<glyph unicode="&#x48a;" horiz-adv-x="1322" d="M155 0v1219h174v-812l-15 -132h8l87 137l623 807h108v-1066h204v-42l-174 -337h-115l87 226h-176v806l11 134h-7l-84 -138l-625 -802h-106zM326 1480l161 36q9 -62 53.5 -94.5t117.5 -32.5t117.5 32.5t53.5 93.5l146 -32q-23 -96 -99.5 -150t-219.5 -54 q-138 0 -225.5 47.5t-104.5 153.5z" />
<glyph unicode="&#x48b;" horiz-adv-x="1139" d="M153 0v914h161v-540l-13 -160h19l80 155l420 545h125v-778h174v-42l-174 -320h-115l87 226h-132v522l24 181h-19l-85 -170l-428 -533h-124zM246 1194l142 45q9 -38 24.5 -60.5t36.5 -34t48 -14t56 -2.5q30 0 57.5 3.5t48 15.5t36.5 33t24 58l125 -37 q-20 -103 -100.5 -144.5t-193.5 -41.5q-54 0 -104.5 8.5t-91 29.5t-69.5 55t-39 86z" />
<glyph unicode="&#x48c;" horiz-adv-x="1078" d="M0 1098v123h174v136h174v-136h273v-123h-273v-344q9 2 30.5 4.5t49.5 4t56 3.5t51 2q90 0 177 -17t156 -59.5t110.5 -113.5t41.5 -181q0 -105 -41 -183t-111.5 -128.5t-166 -75.5t-206.5 -25q-27 0 -66 0.5t-83.5 4t-89 8.5t-82.5 14v1086h-174zM348 144q25 -6 72.5 -8 t92.5 -2q65 0 124 15t103 46t70 78t26 112q0 70 -28 115t-74 71t-104.5 36.5t-121.5 10.5q-15 0 -39.5 -1.5t-48 -3.5t-43.5 -5.5t-29 -4.5v-459z" />
<glyph unicode="&#x48d;" horiz-adv-x="1002" d="M0 789v125h224v305h161v-305h321v-125h-321v-225q60 7 107.5 10.5t82.5 3.5q102 0 173.5 -21t116.5 -57.5t65 -87t20 -108.5q0 -164 -109.5 -239t-342.5 -75q-68 0 -137.5 1t-136.5 6v792h-224zM385 134q43 -5 80 -7t68 -2q131 0 189 42t58 125q0 75 -57.5 119.5 t-181.5 44.5q-34 0 -74 -3t-82 -11v-308z" />
<glyph unicode="&#x48e;" horiz-adv-x="1068" d="M155 0v1206q73 15 159 21.5t170 6.5q88 0 180 -15.5t166.5 -57.5t122.5 -115.5t48 -190.5q0 -131 -59.5 -215.5t-152.5 -129.5l126 -178l-95 -68l-144 206q-45 -12 -94 -17.5t-98 -5.5q-11 0 -32.5 1t-45 1.5t-45.5 3t-32 3.5v-456h-174zM329 606q8 -3 28 -4t42.5 -3 t42.5 -2h30q30 0 59 2t59 7l-113 156l83 58l128 -184q56 26 92.5 77t36.5 140q0 70 -30 115t-77 71t-105 36t-116 10q-47 0 -91 -2t-69 -9v-468z" />
<glyph unicode="&#x48f;" horiz-adv-x="1096" d="M153 -348v1262h108l31 -117h16q46 68 121.5 105.5t169.5 37.5q198 0 295.5 -110.5t97.5 -352.5q0 -115 -32 -206.5t-91 -157.5l116 -128l-101 -95l-125 138q-50 -25 -107 -39t-122 -14q-35 0 -64 2.5t-53.5 9t-49 14t-49.5 19.5v-368h-161zM314 171q40 -28 86.5 -44 t119.5 -16q87 0 148 33l-111 119l91 74l104 -118q33 45 51.5 110.5t18.5 149.5q0 147 -59.5 236t-199.5 89q-105 0 -164.5 -52t-84.5 -160v-421z" />
<glyph unicode="&#x490;" horiz-adv-x="845" d="M155 0v1219h576l31 240h115v-394h-548v-1065h-174z" />
<glyph unicode="&#x491;" horiz-adv-x="741" d="M153 0v914h442l31 240h115v-376h-427v-778h-161z" />
<glyph unicode="&#x492;" horiz-adv-x="925" d="M15 543v129h183v547h723v-154h-549v-393h413v-129h-413v-543h-174v543h-183z" />
<glyph unicode="&#x493;" horiz-adv-x="779" d="M0 379v123h150v412h588v-136h-428v-276h381v-123h-381v-379h-160v379h-150z" />
<glyph unicode="&#x494;" horiz-adv-x="1099" d="M155 0v1219h722v-154h-548v-439q25 7 90 22t169 15q75 0 149 -19t133.5 -67.5t95 -130.5t35.5 -207q0 -235 -116 -348.5t-333 -113.5q-62 0 -89.5 2t-40.5 5v151q23 -3 52 -4t81 -1q128 0 195 72.5t67 223.5q0 83 -23 139.5t-61.5 89t-89.5 45.5t-108 13q-32 0 -65 -4 t-60.5 -10t-50 -12.5t-30.5 -9.5v-477h-174z" />
<glyph unicode="&#x495;" horiz-adv-x="1071" d="M153 0v914h583v-136h-422v-322q50 14 112.5 28t153.5 14q78 0 147.5 -21.5t123.5 -71.5t85.5 -131t31.5 -199q0 -235 -104.5 -351t-333.5 -116q-47 0 -81.5 3.5t-51.5 5.5v136q17 -2 59 -5.5t79 -3.5q141 0 205 84.5t64 227.5q0 153 -74 228t-206 75q-70 0 -126.5 -17.5 t-83.5 -27.5v-314h-161z" />
<glyph unicode="&#x496;" horiz-adv-x="1561" d="M-3 0l410 543l93 66l-89 63l-388 547h201l373 -540h86v540h163v-561l80 25l371 536h193l-376 -530l-78 -57l97 -72l302 -407h116v-376h-120l-28 223h-64l-407 557h-86v-557h-163v578l-80 -25l-407 -553h-199z" />
<glyph unicode="&#x497;" horiz-adv-x="1392" d="M10 0l305 412l79 61l-110 75l-251 366h174l266 -396h115v396h157v-414l104 28l269 386h172l-263 -364l-83 -66l107 -77l185 -271h136v-352h-113l-28 216h-87l-286 411h-113v-411h-157v432l-104 -28l-286 -404h-188z" />
<glyph unicode="&#x498;" horiz-adv-x="1025" d="M76 28l44 153q45 -19 124.5 -34.5t194.5 -15.5q53 0 107.5 12.5t98 40t70 70t26.5 101.5q0 105 -80.5 153.5t-225.5 57.5q-23 2 -40.5 3t-40.5 1h-95v135h30h40.5t52.5 2t52.5 3t40.5 4q95 12 160.5 60t65.5 128q0 53 -20 89t-55.5 58t-82.5 31.5t-99 9.5 q-101 0 -176 -16t-115 -34l-47 138q17 10 53.5 21t84.5 19.5t106.5 14.5t119.5 6q77 0 151.5 -14.5t133 -49.5t95 -92.5t36.5 -144.5q0 -86 -62 -165t-186 -113v-7q134 -20 211 -94t77 -199q0 -88 -34.5 -156t-94 -115t-135.5 -74t-159 -35l-26 -290h-110l-36 290 q-87 6 -150 18t-105 30z" />
<glyph unicode="&#x499;" horiz-adv-x="897" d="M83 35l42 129q47 -25 113 -35.5t145 -10.5q241 0 240 150q0 68 -57.5 102.5t-199.5 34.5h-108v123h134q38 0 74 10t63.5 28.5t44 44t16.5 54.5q0 73 -54 101t-164 28q-76 0 -139.5 -16.5t-103.5 -34.5l-44 122q113 65 340 65q164 0 247.5 -58t83.5 -167q0 -30 -11.5 -61 t-34 -60t-55 -52.5t-74.5 -35.5v-19q119 -21 166 -77.5t47 -147.5q0 -99 -80.5 -173t-241.5 -93l-27 -296h-109l-37 293q-71 5 -121 18t-95 34z" />
<glyph unicode="&#x49a;" horiz-adv-x="1171" d="M155 0v1219h174v-561l80 25l438 536h199l-438 -523l-83 -58l96 -70l354 -415h181v-376h-120l-28 223h-122l-472 553h-85v-553h-174z" />
<glyph unicode="&#x49b;" horiz-adv-x="981" d="M153 0v914h161v-416l95 32l312 384h176l-298 -356h2l-94 -67l113 -79l210 -276h125v-352h-113l-28 216h-74l-328 411h-98v-411h-161z" />
<glyph unicode="&#x49c;" horiz-adv-x="1310" d="M155 0v1219h174v-561l101 7v222h133v-210l43 6l394 536h194l-398 -523l-84 -58l97 -68l443 -570h-212l-431 553h-46v-222h-133v222h-101v-553h-174z" />
<glyph unicode="&#x49d;" horiz-adv-x="1131" d="M153 0v915h161v-433l125 11v241h109v-231l75 9l239 402h156l-205 -351l-115 -81l129 -90l276 -392h-182l-289 405h-84v-214h-109v214h-125v-405h-161z" />
<glyph unicode="&#x49e;" horiz-adv-x="1274" d="M0 968v143h263v108h174v-108h223v-136h-223v-317l96 25l427 536h196l-428 -523l-90 -58l100 -68l478 -570h-221l-465 553h-93v-553h-174v968h-263z" />
<glyph unicode="&#x49f;" horiz-adv-x="985" d="M0 955v116h169v148h160v-148h292v-116h-292v-457l91 30l302 386h188l-290 -354h1l-96 -69l111 -79l321 -412h-201l-328 411h-99v-411h-160v955h-169z" />
<glyph unicode="&#x4a0;" horiz-adv-x="1315" d="M0 1065v154h479v-561l79 25l440 536h198l-437 -523l-83 -58l97 -70l482 -568h-219l-472 553h-85v-553h-175v1065h-304z" />
<glyph unicode="&#x4a1;" horiz-adv-x="1021" d="M0 778v136h385v-414l95 30l312 384h176l-298 -354l-94 -73l117 -76l319 -411h-201l-327 411h-99v-411h-161v778h-224z" />
<glyph unicode="&#x4a2;" horiz-adv-x="1339" d="M155 0v1219h174v-521h618v521h174v-1066h169v-376h-120l-28 223h-195v545h-618v-545h-174z" />
<glyph unicode="&#x4a3;" horiz-adv-x="1094" d="M153 0v914h161v-373h459v373h160v-778h127v-352h-113l-28 216h-146v399h-459v-399h-161z" />
<glyph unicode="&#x4a4;" horiz-adv-x="1637" d="M155 0v1219h174v-521h618v521h722v-154h-548v-1065h-174v545h-618v-545h-174z" />
<glyph unicode="&#x4a5;" horiz-adv-x="1352" d="M153 0v914h161v-373h459v373h579v-136h-419v-778h-160v399h-459v-399h-161z" />
<glyph unicode="&#x4a6;" horiz-adv-x="1867" d="M155 0v1219h941v-593q25 7 91.5 22t169.5 15q75 0 149.5 -19t132.5 -67.5t95 -130.5t37 -207q0 -235 -118 -348.5t-332 -113.5q-61 0 -89 2t-41 5v148q23 -3 52 -4t82 -1q128 0 194.5 73t66.5 226q0 85 -23 140.5t-61 88t-89 45.5t-109 13q-32 0 -65 -4t-60.5 -10 t-49 -12.5t-33.5 -9.5v-85v-392h-174v1065h-593v-1065h-174z" />
<glyph unicode="&#x4a7;" horiz-adv-x="1671" d="M153 0v914h769v-462q52 16 115 30t149 14q76 0 146.5 -22t125.5 -71t87 -129.5t32 -198.5q0 -237 -104.5 -351t-328.5 -114q-50 0 -85.5 7t-50.5 9v133q15 0 53.5 -6.5t84.5 -6.5q141 0 204.5 82t63.5 230q0 76 -21 133.5t-57.5 95t-88 55.5t-112.5 18t-115.5 -14 t-97.5 -26v-320h-160v778h-445v-778h-164z" />
<glyph unicode="&#x4a8;" horiz-adv-x="1564" d="M101 609q0 148 39 265.5t114 199.5t180.5 124.5t239.5 42.5v-150q-87 0 -158.5 -29.5t-122 -89.5t-79 -149.5t-28.5 -207.5q0 -105 33 -194t91 -154t136.5 -102t169.5 -37q19 0 44 1.5t44 8.5q-59 33 -106 84.5t-79.5 116.5t-49.5 139.5t-17 153.5q0 132 34.5 236 t94.5 173.5t143 106t177 36.5q107 0 187.5 -35t135.5 -98.5t83.5 -155t28.5 -202.5q0 -105 -24.5 -194.5t-65 -162t-94.5 -124.5t-112 -81q8 -2 18 -2.5t20 -0.5q72 0 126.5 15t91.5 40l52 -138q-34 -30 -90 -49t-157 -19q-63 0 -127 17.5t-106 42.5q-108 -60 -252 -60 q-143 0 -257 45.5t-193.5 128t-122 199.5t-42.5 259zM736 623q0 -58 15 -121t46.5 -122.5t77.5 -110t108 -83.5q51 26 99 72t86 110t61 143t23 172q0 71 -13 135t-43 112t-76.5 76t-113.5 28q-53 0 -102 -23.5t-86.5 -74t-59.5 -128t-22 -185.5z" />
<glyph unicode="&#x4a9;" horiz-adv-x="1360" d="M105 455q0 222 108.5 349.5t329.5 137.5v-136q-268 -16 -268 -346q0 -68 20 -132t60 -111.5t100 -76.5t140 -29q21 0 51.5 4.5t64.5 23.5q-77 47 -127.5 137.5t-50.5 221.5q0 63 16.5 135.5t58 134.5t112 104t178.5 42q95 0 161.5 -30.5t108.5 -83.5t61 -124.5t19 -151.5 q0 -67 -22 -128.5t-56.5 -113.5t-79.5 -94t-92 -68q28 -9 52 -12t43 -3q37 0 77 10t80 43q13 -33 22 -55.5t17 -44.5l3 -15q-37 -29 -95.5 -48.5t-129.5 -19.5q-58 0 -115 21t-99 52q-64 -41 -138 -57t-140 -16q-112 0 -200 36t-148 99.5t-91 151.5t-31 193zM696 473 q0 -102 48 -187t126 -135q42 23 79.5 59t66.5 83.5t45.5 105t16.5 121.5q0 47 -11.5 93.5t-34 83t-56.5 59t-81 22.5q-61 0 -99.5 -28t-60 -71t-30.5 -98.5t-9 -107.5z" />
<glyph unicode="&#x4aa;" horiz-adv-x="1085" d="M101 609q0 171 52.5 291t135.5 195.5t187.5 110.5t207.5 35q115 0 188 -12t123 -31l-38 -147q-85 40 -259 40q-78 0 -152 -25.5t-132.5 -83.5t-93 -149.5t-34.5 -223.5q0 -118 33 -207.5t91 -150.5t137 -91.5t174 -30.5q85 0 148 15.5t106 39.5l42 -132 q-49 -35 -119.5 -52t-152.5 -21l-26 -289h-110l-36 296q-100 16 -185 61.5t-149.5 122.5t-101 186t-36.5 253z" />
<glyph unicode="&#x4ab;" horiz-adv-x="920" d="M105 456q0 232 112 358t323 126q92 0 160 -16.5t122 -41.5l-42 -130q-46 25 -101.5 38.5t-120.5 13.5q-283 0 -283 -348q0 -66 15.5 -127t50.5 -108.5t91.5 -76.5t138.5 -29q73 0 128 20t91 48l52 -120q-50 -35 -113 -56t-134 -28l-25 -289h-110l-37 295 q-86 15 -147.5 55t-99 101t-54.5 141t-17 174z" />
<glyph unicode="&#x4ac;" horiz-adv-x="1061" d="M33 1065v154h995v-154h-410v-912h169v-376h-121l-27 223h-195v1065h-411z" />
<glyph unicode="&#x4ad;" horiz-adv-x="793" d="M0 778v136h794v-136h-317v-642h134v-352h-113l-28 216h-153v778h-317z" />
<glyph unicode="&#x4ae;" horiz-adv-x="1073" d="M12 1219h204l304 -518l30 -111h3l33 115l291 514h185l-434 -740v-479h-173v477z" />
<glyph unicode="&#x4af;" horiz-adv-x="958" d="M14 914h187l236 -585l54 -218h14l53 220l213 583h174l-375 -917v-347h-161v347z" />
<glyph unicode="&#x4b0;" horiz-adv-x="1073" d="M12 1219h204l304 -518l30 -111h3l33 115l291 514h185l-421 -719h276v-123h-289v-377h-173v377h-289v123h274z" />
<glyph unicode="&#x4b1;" horiz-adv-x="958" d="M14 914h187l236 -585l54 -218h14l53 220l213 583h174l-374 -912h233v-115h-234v-237h-161v237h-235v115h231z" />
<glyph unicode="&#x4b2;" horiz-adv-x="1235" d="M45 0l440 620l-402 599h208l262 -400l48 -102l45 102l275 400h192l-415 -587l327 -479h196v-376h-121l-27 223h-145l-290 425l-55 106l-48 -106l-298 -425h-192z" />
<glyph unicode="&#x4b3;" horiz-adv-x="1028" d="M52 0l353 468l-329 446h204l178 -233l60 -124l72 124l184 233h181l-332 -439q61 -83 123.5 -169.5t125.5 -169.5h129v-352h-114l-27 216h-80l-200 259l-70 131l-71 -131l-202 -259h-185z" />
<glyph unicode="&#x4b4;" horiz-adv-x="1598" d="M33 1065v154h921v-154h-336v-912h580v1066h174v-1066h176v-376h-121l-27 223h-956v1065h-411z" />
<glyph unicode="&#x4b5;" horiz-adv-x="1252" d="M0 778v136h768v-136h-295v-642h437v778h161v-778h148v-366h-106l-33 230h-766v778h-314z" />
<glyph unicode="&#x4b6;" horiz-adv-x="1218" d="M133 797v422h173v-385q0 -117 56 -180.5t176 -63.5q88 0 164 21t123 55v553h175v-1066h168v-376h-120l-28 223h-195v518q-50 -28 -134.5 -53t-194.5 -25q-81 0 -148.5 19.5t-115.5 63t-73.5 110.5t-25.5 164z" />
<glyph unicode="&#x4b7;" horiz-adv-x="1003" d="M105 646v268h159v-225q0 -56 6.5 -99t26.5 -74.5t55.5 -48.5t92.5 -17q89 0 149 20.5t92 44.5v399h160v-778h124v-352h-113l-28 216h-143v388q-33 -21 -101 -47t-181 -26q-73 0 -129.5 16t-94 54t-56.5 101.5t-19 159.5z" />
<glyph unicode="&#x4b8;" horiz-adv-x="1174" d="M133 790v429h173v-392q0 -226 209 -237v211h133v-204q61 8 112 27t86 42v553h174v-1219h-174v518q-33 -16 -84 -33.5t-114 -29.5v-211h-133v196h-19q-80 0 -147 17.5t-115 58.5t-74.5 108t-26.5 166z" />
<glyph unicode="&#x4b9;" horiz-adv-x="1053" d="M105 666v248h159v-190q0 -59 6.5 -106t25.5 -79t56.5 -50.5t97.5 -20.5v248h113v-241q61 10 106 28.5t71 39.5v371h160v-914h-160v423q-25 -17 -68.5 -35.5t-108.5 -30.5v-228h-113v214h-39q-74 0 -131 15.5t-96.5 53t-59 99.5t-19.5 155z" />
<glyph unicode="&#x4ba;" horiz-adv-x="1151" d="M155 0v1219h174v-519q50 28 134 53t193 25q80 0 146.5 -18.5t115 -58.5t75.5 -105t27 -161v-435h-174v397q0 231 -230 231q-88 0 -164 -21t-123 -57v-550h-174z" />
<glyph unicode="&#x4bb;" horiz-adv-x="1115" d="M153 0v1219h161v-418h18q52 63 125.5 101t181.5 38q83 0 144 -18t101 -64.5t59.5 -124t19.5 -193.5v-540h-161v505q0 75 -9 129.5t-34.5 91t-68 54t-107.5 17.5q-45 0 -89 -15.5t-80.5 -43t-62 -67t-37.5 -88.5v-583h-161z" />
<glyph unicode="&#x4bc;" horiz-adv-x="1500" d="M3 773q2 50 13.5 79t35.5 50h159q-30 -21 -40.5 -54.5t-10.5 -57.5q0 -16 5.5 -35t21 -34.5t45 -26t78.5 -10.5q14 0 27 1t29 3q13 264 148 408.5t379 144.5q241 0 364 -134t123 -378q0 -45 -4 -92t-13 -97h-823q31 -412 432 -412q85 0 158 24t124 54l43 -138 q-66 -37 -154 -64t-205 -27q-125 0 -227.5 33t-176.5 102t-118 175.5t-50 252.5h-68q-82 0 -138.5 19t-92.5 50.5t-50.5 74t-13.5 89.5zM538 689h663q3 22 4 42.5t1 39.5q0 65 -17.5 123t-55.5 102t-96.5 69.5t-139.5 25.5q-171 0 -260.5 -102t-98.5 -300z" />
<glyph unicode="&#x4bd;" horiz-adv-x="1237" d="M2 679q3 50 24 86.5t45 63.5h131q-24 -27 -41.5 -63.5t-17.5 -81.5q0 -28 6.5 -52t25 -41.5t51 -27.5t80.5 -10q25 190 137 288.5t304 98.5q68 0 135.5 -15t121.5 -55.5t88 -112t34 -186.5q0 -28 -1.5 -64.5t-6.5 -71.5h-653q3 -160 76.5 -242t248.5 -82q74 0 139.5 25.5 t102.5 59.5l61 -121q-61 -45 -151.5 -72.5t-196.5 -27.5q-113 0 -195.5 32.5t-137.5 92.5t-82 144.5t-29 190.5h-5q-136 0 -216 57.5t-78 186.5zM472 550h501q4 139 -56 196.5t-168 57.5q-122 0 -193.5 -57.5t-83.5 -196.5z" />
<glyph unicode="&#x4be;" horiz-adv-x="1500" d="M3 773q2 50 13.5 79t35.5 50h159q-30 -21 -40.5 -54.5t-10.5 -57.5q0 -16 5.5 -35t21 -34.5t45 -26t78.5 -10.5q14 0 27 1t29 3q13 264 148 408.5t379 144.5q241 0 364 -134t123 -378q0 -45 -4 -92t-13 -97h-823q31 -411 432 -411q85 0 158 23.5t124 53.5l43 -138 q-59 -35 -137.5 -59t-177.5 -30l-27 -289h-109l-37 298q-198 30 -315 164t-128 388h-68q-82 0 -138.5 19t-92.5 50.5t-50.5 74t-13.5 89.5zM538 689h663q3 22 4 42.5t1 39.5q0 65 -17.5 123t-55.5 102t-96.5 69.5t-139.5 25.5q-171 0 -260.5 -102t-98.5 -300z" />
<glyph unicode="&#x4bf;" horiz-adv-x="1237" d="M2 679q3 50 24 86.5t45 63.5h131q-24 -27 -41.5 -63.5t-17.5 -81.5q0 -28 6.5 -52t25 -42.5t51 -28t80.5 -9.5q25 189 137 288.5t304 99.5q68 0 135.5 -15t121.5 -55.5t88 -112t34 -186.5q0 -28 -1.5 -64.5t-6.5 -71.5h-653q3 -160 76.5 -240t248.5 -80q74 0 139.5 25.5 t102.5 60.5l61 -126q-50 -40 -124 -64.5t-163 -31.5l-26 -305h-110l-38 311q-168 29 -248 147.5t-83 304.5h-5q-136 0 -216 56.5t-78 185.5zM472 550h501q4 139 -56 196.5t-168 57.5q-122 0 -193.5 -57.5t-83.5 -196.5z" />
<glyph unicode="&#x4c0;" horiz-adv-x="692" d="M120 0v115h139v988h-139v116h453v-116h-139v-988h139v-115h-453z" />
<glyph unicode="&#x4c3;" horiz-adv-x="1144" d="M155 0v1219h174v-561l80 25l438 536h199l-421 -495l-110 -68h118q100 -23 171.5 -62t117.5 -100.5t67 -149.5t21 -208v-33q0 -125 -27.5 -214.5t-76 -146t-118 -82.5t-152.5 -26q-16 0 -33 1t-33 3v150q73 -2 124 14.5t82.5 56.5t45.5 105t14 161q0 219 -101.5 323.5 t-322.5 104.5h-83v-553h-174z" />
<glyph unicode="&#x4c4;" horiz-adv-x="972" d="M153 0v914h161v-435l95 33l310 402h176l-298 -371l-90 -64q34 -4 53.5 -5.5t30 -3.5t14.5 -2h8q81 -21 135 -61t85.5 -90.5t44 -108.5t12.5 -112v-33q0 -111 -26.5 -191.5t-72.5 -132t-109.5 -75.5t-138.5 -24q-28 0 -75 5v131q124 -9 192.5 63.5t68.5 220.5 q0 96 -20.5 156.5t-60.5 95.5t-99.5 48.5t-137.5 15.5h-97v-376h-161z" />
<glyph unicode="&#x4c5;" horiz-adv-x="1190" d="M-7 8l22 147q22 -5 42.5 -5t42.5 8t43 26t40 51q26 45 48.5 122t40 195t29 283t16.5 384h717v-1066h177v-42l-173 -337h-116l88 226h-150v1065h-383q-9 -173 -20.5 -313.5t-28.5 -254.5t-40.5 -201t-58.5 -152q-45 -83 -104 -117.5t-124 -34.5q-36 0 -60 4t-48 12z" />
<glyph unicode="&#x4c6;" horiz-adv-x="1037" d="M-10 8l24 147q23 -7 51 -7q41 0 74.5 30.5t57.5 114t39.5 233.5t22.5 388h605v-778h153v-42l-175 -320h-114l86 226h-111v778h-296l-3 -52q-12 -173 -28.5 -309.5t-48 -231.5t-84 -144t-135.5 -49q-38 0 -68 4t-50 12z" />
<glyph unicode="&#x4c7;" horiz-adv-x="1275" d="M155 0v1219h174v-521h618v521h174v-1219v-42q0 -161 -60.5 -242.5t-195.5 -81.5q-17 0 -34 2t-35 5v147q53 -2 83.5 9.5t45.5 36.5t18.5 66.5t3.5 99.5v545h-618v-545h-174z" />
<glyph unicode="&#x4c8;" horiz-adv-x="1085" d="M153 0v914h161v-373h459v373h160v-956q0 -161 -58 -239t-191 -78q-35 0 -73 5v131q54 -1 85.5 12t48.5 40t22.5 70t5.5 101v399h-459v-399h-161z" />
<glyph unicode="&#x4c9;" horiz-adv-x="1296" d="M155 0v1219h174v-521h618v521h174v-1066h197v-42l-174 -337h-116l88 226h-169v545h-618v-545h-174z" />
<glyph unicode="&#x4ca;" horiz-adv-x="1110" d="M153 0v914h161v-373h459v373h160v-778h157v-42l-175 -320h-114l86 226h-114v399h-459v-399h-161z" />
<glyph unicode="&#x4cb;" horiz-adv-x="1153" d="M133 797v422h173v-385q0 -117 56 -180.5t176 -63.5q88 0 164 21t123 55v553h175v-1219h-198l-28 -223h-120v376h171v365q-50 -28 -134.5 -53t-194.5 -25q-81 0 -148.5 19.5t-115.5 63t-73.5 110.5t-25.5 164z" />
<glyph unicode="&#x4cc;" horiz-adv-x="995" d="M105 638v276h159v-223q0 -52 6.5 -94t25 -71.5t53 -45t91.5 -15.5q89 0 148.5 19t94.5 44v386h159v-914h-189l-35 -233h-101v369h166v258q-44 -20 -114.5 -42.5t-166.5 -22.5q-148 0 -222.5 68t-74.5 241z" />
<glyph unicode="&#x4cd;" horiz-adv-x="1538" d="M155 0v1219h131l412 -622l64 -132h4l61 136l392 618h137v-1066h204v-42l-174 -337h-115l86 226h-175v785l19 195h-7l-75 -169l-339 -540h-52l-357 542l-72 165h-8l28 -191v-787h-164z" />
<glyph unicode="&#x4ce;" horiz-adv-x="1336" d="M153 0v914h167l273 -402l67 -127l73 130l256 399h167v-778h160v-42l-174 -320h-115l87 226h-114v517l10 186h-21l-79 -143l-234 -346h-55l-247 346l-70 143h-18l15 -185v-518h-148z" />
<glyph unicode="&#x4cf;" horiz-adv-x="485" d="M160 0v1219h166v-1219h-166z" />
<glyph unicode="&#x4d0;" horiz-adv-x="1122" d="M14 0l501 1236h91l503 -1236h-181l-132 319h-482l-130 -319h-170zM228 1480l161 36q9 -62 53.5 -94.5t117.5 -32.5t117.5 32.5t53.5 93.5l146 -32q-23 -96 -99.5 -150t-219.5 -54q-137 0 -225 47.5t-105 153.5zM366 465h379l-141 346l-47 187h-4l-46 -190z" />
<glyph unicode="&#x4d1;" horiz-adv-x="1012" d="M78 244q0 78 34 135.5t88 94t123 54t137 17.5q53 0 90.5 -2t63 -4.5t43 -5t31.5 -3.5q3 26 4.5 44.5t1.5 48.5q0 49 -10 82t-34 53t-63.5 29t-97.5 9q-33 0 -73 -5.5t-80 -15t-79 -23.5t-71 -30l-43 135q156 75 388 75q105 0 168 -27.5t98 -69t46.5 -93t11.5 -101.5 q0 -96 -7 -192.5t-7 -209.5q0 -66 6 -128.5t20 -113.5h-116l-45 139h-17q-19 -26 -46.5 -53t-66 -48t-88 -35t-114.5 -14t-118.5 18.5t-93 51t-62 80.5t-22.5 108zM181 1194l142 45q9 -38 24.5 -60.5t36.5 -34t48 -14t56 -2.5q30 0 57 3.5t48 15.5t37 33t24 58l125 -37 q-20 -103 -100.5 -144.5t-193.5 -41.5q-54 0 -104.5 8.5t-91 29.5t-69.5 55t-39 86zM249 261q0 -70 49.5 -104.5t128.5 -34.5q57 0 101.5 14.5t77 36.5t52 49t30.5 53v139q-14 2 -29.5 5.5t-39.5 5.5t-56 3.5t-79 1.5q-108 0 -171.5 -38t-63.5 -131z" />
<glyph unicode="&#x4d2;" horiz-adv-x="1122" d="M14 0l501 1236h91l503 -1236h-181l-132 319h-482l-130 -319h-170zM265 1384q0 40 28.5 63t78.5 23q49 0 78.5 -23t29.5 -63q0 -38 -29.5 -61.5t-78.5 -23.5q-50 0 -78.5 23.5t-28.5 61.5zM366 465h379l-141 346l-47 187h-4l-46 -190zM637 1384q0 40 29 63t77 23 q50 0 80 -23t30 -63q0 -38 -30 -61.5t-80 -23.5q-48 0 -77 23.5t-29 61.5z" />
<glyph unicode="&#x4d3;" horiz-adv-x="1012" d="M78 244q0 78 34 135.5t88 94t123 54t137 17.5q53 0 90.5 -2t63 -4.5t43 -5t31.5 -3.5q3 26 4.5 44.5t1.5 48.5q0 49 -10 82t-34 53t-63.5 29t-97.5 9q-33 0 -73 -5.5t-80 -15t-79 -23.5t-71 -30l-43 135q156 75 388 75q105 0 168 -27.5t98 -69t46.5 -93t11.5 -101.5 q0 -96 -7 -192.5t-7 -209.5q0 -66 6 -128.5t20 -113.5h-116l-45 139h-17q-19 -26 -46.5 -53t-66 -48t-88 -35t-114.5 -14t-118.5 18.5t-93 51t-62 80.5t-22.5 108zM208 1103q0 42 27.5 70t73.5 28q43 0 70 -28t27 -70q0 -40 -27 -67.5t-70 -27.5q-45 0 -73 27.5t-28 67.5z M249 261q0 -70 49.5 -104.5t128.5 -34.5q57 0 101.5 14.5t77 36.5t52 49t30.5 53v139q-14 2 -29.5 5.5t-39.5 5.5t-56 3.5t-79 1.5q-108 0 -171.5 -38t-63.5 -131zM582 1103q0 42 27 70t72 28t72 -28t27 -70q0 -40 -27 -67.5t-72 -27.5t-72 27.5t-27 67.5z" />
<glyph unicode="&#x4d4;" horiz-adv-x="1616" d="M-43 0l794 1219h739v-151h-562v-370h514v-150h-514v-398h571v-150h-745v329h-400l-210 -329h-187zM444 475h310v553h-7l-66 -184z" />
<glyph unicode="&#x4d5;" horiz-adv-x="1618" d="M78 242q0 78 36 132t101 86.5t156.5 47t201.5 14.5q26 0 58 -1t62 3v6q5 41 5 91q0 98 -47 136.5t-162 38.5q-32 0 -71 -4.5t-79.5 -12.5t-80 -19t-70.5 -24l-44 115q74 36 175 58.5t214 22.5q99 0 168.5 -33.5t107.5 -89.5q28 33 65.5 58t79 41t87 24t87.5 8 q70 0 138 -15t122 -55t87 -113t33 -187q0 -25 -1 -55.5t-7 -75.5h-654q1 -79 19.5 -140.5t58 -104.5t101 -65.5t148.5 -22.5q66 0 132.5 21t109.5 54l58 -106q-59 -44 -153 -72t-192 -28q-122 0 -224 49t-152 136h-19q-27 -32 -61 -63t-78 -55.5t-99 -40t-121 -15.5 q-65 0 -118.5 17.5t-93 50.5t-62 81t-22.5 107zM249 259q0 -63 49.5 -102t128.5 -39q57 0 100.5 14t76 35t54 46.5t33.5 49.5v148q-30 3 -62 2t-61 -1q-63 0 -120.5 -6.5t-102 -24t-70.5 -47.5t-26 -75zM853 553h499q2 70 -12.5 118t-44 77.5t-71.5 42.5t-94 13 q-120 0 -190 -57.5t-87 -193.5z" />
<glyph unicode="&#x4d6;" horiz-adv-x="1018" d="M155 0v1219h737v-151h-563v-370h513v-150h-513v-398h571v-150h-745zM193 1480l161 36q9 -62 53.5 -94.5t117.5 -32.5t117.5 32.5t53.5 93.5l146 -32q-23 -96 -99.5 -150t-219.5 -54q-137 0 -225 47.5t-105 153.5z" />
<glyph unicode="&#x4d7;" horiz-adv-x="1040" d="M105 456q0 235 115.5 359.5t329.5 124.5q68 0 136 -15t122 -55.5t88 -112t34 -186.5q0 -28 -2 -64.5t-7 -71.5h-653q3 -160 76.5 -242t248.5 -82q73 0 139.5 25.5t103.5 59.5l61 -121q-61 -45 -152 -72.5t-197 -27.5q-114 0 -199 34t-139 97t-79.5 152t-25.5 198z M246 1194l142 45q9 -38 24.5 -60.5t36.5 -34t48 -14t56 -2.5q30 0 57 3.5t48 15.5t37 33t24 58l125 -37q-20 -103 -100.5 -144.5t-193.5 -41.5q-54 0 -104.5 8.5t-91 29.5t-69.5 55t-39 86zM275 550h501q3 139 -56.5 196.5t-167.5 57.5q-122 0 -193.5 -57.5t-83.5 -196.5z " />
<glyph unicode="&#x4d8;" horiz-adv-x="1214" d="M96 495q0 45 5 94.5t14 101.5h825q-15 206 -112 303t-288 97q-45 0 -89 -7.5t-83 -19t-71.5 -24.5t-52.5 -25l-40 139q56 33 153.5 60t215.5 27q127 0 228 -35.5t170.5 -112t106 -197t36.5 -287.5q0 -300 -132.5 -466t-398.5 -166q-120 0 -211.5 36.5t-152.5 103.5 t-92 163t-31 215zM277 462q0 -65 18.5 -125t56.5 -107t96.5 -74.5t137.5 -27.5q170 0 261 103t93 314h-656q-4 -21 -5.5 -42t-1.5 -41z" />
<glyph unicode="&#x4d9;" horiz-adv-x="1042" d="M111 379q0 25 2 59t7 70h653q-9 78 -27 135t-55.5 91.5t-96.5 51t-147 16.5q-68 0 -135.5 -24t-109.5 -56l-56 115q63 45 152.5 73t192.5 28q117 0 201 -35.5t139 -99t81 -152t26 -195.5q0 -113 -29.5 -201.5t-84.5 -150.5t-135 -95.5t-181 -33.5q-74 0 -145.5 19.5 t-127.5 65.5t-90 123.5t-34 195.5zM275 394q-5 -147 60 -215t175 -68q113 0 184.5 73.5t73.5 209.5h-493z" />
<glyph unicode="&#x4da;" horiz-adv-x="1214" d="M96 495q0 45 5 94.5t14 101.5h825q-15 206 -112 303t-288 97q-45 0 -89 -7.5t-83 -19t-71.5 -24.5t-52.5 -25l-40 139q56 33 153.5 60t215.5 27q127 0 228 -35.5t170.5 -112t106 -197t36.5 -287.5q0 -300 -132.5 -466t-398.5 -166q-120 0 -211.5 36.5t-152.5 103.5 t-92 163t-31 215zM277 462q0 -65 18.5 -125t56.5 -107t96.5 -74.5t137.5 -27.5q170 0 261 103t93 314h-656q-4 -21 -5.5 -42t-1.5 -41zM300 1384q0 40 28.5 63t78.5 23q49 0 78.5 -23t29.5 -63q0 -38 -29.5 -61.5t-78.5 -23.5q-50 0 -78.5 23.5t-28.5 61.5zM672 1384 q0 40 29 63t77 23q50 0 80 -23t30 -63q0 -38 -30 -61.5t-80 -23.5q-48 0 -77 23.5t-29 61.5z" />
<glyph unicode="&#x4db;" horiz-adv-x="1042" d="M111 379q0 25 2 59t7 70h653q-9 78 -27 135t-55.5 91.5t-96.5 51t-147 16.5q-68 0 -135.5 -24t-109.5 -56l-56 115q63 45 152.5 73t192.5 28q117 0 201 -35.5t139 -99t81 -152t26 -195.5q0 -113 -29.5 -201.5t-84.5 -150.5t-135 -95.5t-181 -33.5q-74 0 -145.5 19.5 t-127.5 65.5t-90 123.5t-34 195.5zM228 1103q0 42 27.5 70t73.5 28q43 0 70 -28t27 -70q0 -40 -27 -67.5t-70 -27.5q-45 0 -73 27.5t-28 67.5zM275 394q-5 -147 60 -215t175 -68q113 0 184.5 73.5t73.5 209.5h-493zM602 1103q0 42 27 70t72 28t72 -28t27 -70 q0 -40 -27 -67.5t-72 -27.5t-72 27.5t-27 67.5z" />
<glyph unicode="&#x4dc;" horiz-adv-x="1545" d="M-3 0l410 543l93 66l-89 63l-388 547h201l373 -540h86v540h163v-561l80 25l371 536h193l-376 -530l-78 -57l97 -72l417 -560h-211l-407 557h-86v-557h-163v578l-80 -25l-407 -553h-199zM472 1384q0 40 28.5 63t78.5 23q49 0 78.5 -23t29.5 -63q0 -38 -29.5 -61.5 t-78.5 -23.5q-50 0 -78.5 23.5t-28.5 61.5zM844 1384q0 40 29 63t77 23q50 0 80 -23t30 -63q0 -38 -30 -61.5t-80 -23.5q-48 0 -77 23.5t-29 61.5z" />
<glyph unicode="&#x4dd;" horiz-adv-x="1347" d="M10 0l305 412l79 61l-110 75l-251 366h174l266 -396h115v396h157v-414l104 28l269 386h172l-263 -364l-83 -66l107 -77l286 -407h-193l-286 411h-113v-411h-157v432l-104 -28l-286 -404h-188zM380 1103q0 42 27.5 70t73.5 28q43 0 70 -28t27 -70q0 -40 -27 -67.5 t-70 -27.5q-45 0 -73 27.5t-28 67.5zM754 1103q0 42 27 70t72 28t72 -28t27 -70q0 -40 -27 -67.5t-72 -27.5t-72 27.5t-27 67.5z" />
<glyph unicode="&#x4de;" horiz-adv-x="1025" d="M76 28l44 150q45 -20 124.5 -35t194.5 -15q53 0 107.5 13.5t98 41.5t70 70.5t26.5 101.5q0 105 -80.5 153.5t-225.5 57.5q-23 2 -40.5 3t-40.5 1h-95v135h30h40.5t52.5 2t52.5 3t40.5 4q95 12 160.5 60t65.5 128q0 53 -20 89t-55.5 58t-82.5 31.5t-99 9.5 q-101 0 -176 -16t-115 -34l-47 138q17 10 53.5 21t84.5 19.5t106.5 14.5t119.5 6q77 0 151.5 -14.5t133 -49.5t95 -92.5t36.5 -144.5q0 -86 -62 -165t-186 -113v-7q134 -20 211 -94t77 -199q0 -99 -43.5 -171.5t-114 -119t-160.5 -69.5t-183 -23q-125 0 -210.5 15t-138.5 36 zM166 1384q0 40 28.5 63t78.5 23q49 0 78.5 -23t29.5 -63q0 -38 -29.5 -61.5t-78.5 -23.5q-50 0 -78.5 23.5t-28.5 61.5zM538 1384q0 40 29 63t77 23q50 0 80 -23t30 -63q0 -38 -30 -61.5t-80 -23.5q-48 0 -77 23.5t-29 61.5z" />
<glyph unicode="&#x4df;" horiz-adv-x="897" d="M83 35l42 127q47 -25 113 -35.5t145 -10.5q241 0 240 152q0 68 -57.5 102.5t-199.5 34.5h-108v123h134q38 0 74 10t63.5 28.5t44 44t16.5 54.5q0 73 -54 101t-164 28q-76 0 -139.5 -16.5t-103.5 -34.5l-44 122q113 65 340 65q164 0 247.5 -58t83.5 -167q0 -30 -11.5 -61 t-34 -60t-55 -52.5t-74.5 -35.5v-19q119 -21 166 -77.5t47 -147.5q0 -57 -26.5 -106.5t-78 -86t-131 -58t-184.5 -21.5q-103 0 -169.5 14t-121.5 41zM119 1103q0 42 27.5 70t73.5 28q43 0 70 -28t27 -70q0 -40 -27 -67.5t-70 -27.5q-45 0 -73 27.5t-28 67.5zM493 1103 q0 42 27 70t72 28t72 -28t27 -70q0 -40 -27 -67.5t-72 -27.5t-72 27.5t-27 67.5z" />
<glyph unicode="&#x4e0;" horiz-adv-x="1068" d="M99 43l42 150q21 -12 56.5 -23.5t76.5 -21t83.5 -15t79.5 -5.5q70 0 130.5 14t106 45t71.5 74t26 101q0 120 -95.5 171.5t-270.5 51.5h-164v59l342 364l83 75l-116 -18h-444v154h796v-71l-371 -392l-69 -53v-5l69 16q95 0 172 -24t132 -68t85 -107t30 -143 q0 -94 -39 -166.5t-108 -124t-162.5 -78t-203.5 -26.5q-40 0 -89 5.5t-95.5 14t-87 21t-66.5 25.5z" />
<glyph unicode="&#x4e1;" horiz-adv-x="913" d="M42 -337l43 128q52 -23 116 -36.5t144 -13.5q68 0 128 18t103.5 52t68.5 81.5t25 107.5q0 128 -88.5 187.5t-245.5 59.5h-140v52l281 395l109 96l-154 -12h-384v136h726v-65l-314 -414l-88 -73l86 12q75 0 142.5 -26t119 -72t81 -110.5t29.5 -142.5q0 -99 -38 -176.5 t-104.5 -130.5t-157 -82t-194.5 -29q-85 0 -158 14.5t-136 43.5z" />
<glyph unicode="&#x4e2;" horiz-adv-x="1294" d="M155 0v1219h174v-812l-15 -132h8l87 137l623 807h108v-1219h-174v806l11 134h-7l-84 -138l-625 -802h-106zM356 1319v119h609v-119h-609z" />
<glyph unicode="&#x4e3;" horiz-adv-x="1098" d="M153 0v914h161v-540l-13 -160h19l80 155l420 545h125v-914h-160v522l24 181h-19l-85 -170l-428 -533h-124zM249 1040v119h571v-119h-571z" />
<glyph unicode="&#x4e4;" horiz-adv-x="1294" d="M155 0v1219h174v-812l-15 -132h8l87 137l623 807h108v-1219h-174v806l11 134h-7l-84 -138l-625 -802h-106zM354 1384q0 40 28.5 63t78.5 23q49 0 78.5 -23t29.5 -63q0 -38 -29.5 -61.5t-78.5 -23.5q-50 0 -78.5 23.5t-28.5 61.5zM726 1384q0 40 29 63t77 23q50 0 80 -23 t30 -63q0 -38 -30 -61.5t-80 -23.5q-48 0 -77 23.5t-29 61.5z" />
<glyph unicode="&#x4e5;" horiz-adv-x="1098" d="M153 0v914h161v-540l-13 -160h19l80 155l420 545h125v-914h-160v522l24 181h-19l-85 -170l-428 -533h-124zM249 1103q0 42 27.5 70t73.5 28q43 0 70 -28t27 -70q0 -40 -27 -67.5t-70 -27.5q-45 0 -73 27.5t-28 67.5zM623 1103q0 42 27 70t72 28t72 -28t27 -70 q0 -40 -27 -67.5t-72 -27.5t-72 27.5t-27 67.5z" />
<glyph unicode="&#x4e6;" horiz-adv-x="1299" d="M101 609q0 150 37.5 267.5t108 198.5t172 123.5t230.5 42.5q138 0 241.5 -46t172 -129t102.5 -199t34 -258q0 -149 -37 -267t-108.5 -198.5t-173.5 -123.5t-231 -43q-139 0 -242 46.5t-170.5 129t-101.5 199t-34 257.5zM286 609q0 -99 21.5 -186t66 -153t113 -104 t162.5 -38q170 0 268 116t98 365q0 98 -21.5 185t-66.5 153t-113.5 105t-164.5 39q-167 0 -265 -118t-98 -364zM356 1384q0 40 28.5 63t78.5 23q49 0 78.5 -23t29.5 -63q0 -38 -29.5 -61.5t-78.5 -23.5q-50 0 -78.5 23.5t-28.5 61.5zM728 1384q0 40 29 63t77 23q50 0 80 -23 t30 -63q0 -38 -30 -61.5t-80 -23.5q-48 0 -77 23.5t-29 61.5z" />
<glyph unicode="&#x4e7;" horiz-adv-x="1098" d="M105 456q0 114 29.5 203.5t87 152t140 95.5t188.5 33q111 0 195 -36.5t139.5 -102t82.5 -153.5t27 -192q0 -111 -30.5 -200t-87 -151.5t-139.5 -96t-187 -33.5q-115 0 -198.5 36.5t-138.5 101.5t-81.5 153t-26.5 190zM260 1103q0 42 27.5 70t73.5 28q43 0 70 -28t27 -70 q0 -40 -27 -67.5t-70 -27.5q-45 0 -73 27.5t-28 67.5zM275 456q0 -64 14.5 -126t48 -110.5t85.5 -78.5t129 -30q271 0 272 345q0 68 -15 130.5t-47.5 110.5t-84.5 77.5t-125 29.5q-136 0 -206.5 -86t-70.5 -262zM634 1103q0 42 27 70t72 28t72 -28t27 -70q0 -40 -27 -67.5 t-72 -27.5t-72 27.5t-27 67.5z" />
<glyph unicode="&#x4e8;" horiz-adv-x="1299" d="M101 609q0 150 37.5 267.5t108 198.5t172 123.5t230.5 42.5q138 0 241.5 -46t172 -129t102.5 -199t34 -258q0 -149 -37 -267t-108.5 -198.5t-173.5 -123.5t-231 -43q-139 0 -242 46.5t-170.5 129t-101.5 199t-34 257.5zM286 543q6 -87 31.5 -163.5t71 -132.5t110 -87.5 t150.5 -31.5q157 0 254.5 100.5t111.5 314.5h-729zM287 689h728q-9 84 -35 157t-71 127.5t-110 86t-150 31.5q-153 0 -249.5 -98t-112.5 -304z" />
<glyph unicode="&#x4e9;" horiz-adv-x="1096" d="M105 456q0 230 114.5 357t330.5 127q111 0 195 -35.5t138.5 -100t81.5 -153t27 -195.5q0 -227 -115.5 -354t-326.5 -127q-115 0 -199.5 36t-139.5 99.5t-80.5 152.5t-25.5 193zM274 513h548q-21 145 -91 218t-181 73q-52 0 -99 -15t-85.5 -49.5t-62.5 -90.5t-29 -136z M275 399q14 -136 89.5 -212t185.5 -76q48 0 93.5 16t82 50t61 88.5t32.5 133.5h-544z" />
<glyph unicode="&#x4ea;" horiz-adv-x="1299" d="M101 609q0 150 37.5 267.5t108 198.5t172 123.5t230.5 42.5q138 0 241.5 -46t172 -129t102.5 -199t34 -258q0 -149 -37 -267t-108.5 -198.5t-173.5 -123.5t-231 -43q-139 0 -242 46.5t-170.5 129t-101.5 199t-34 257.5zM286 543q6 -87 31.5 -163.5t71 -132.5t110 -87.5 t150.5 -31.5q157 0 254.5 100.5t111.5 314.5h-729zM287 689h728q-9 84 -35 157t-71 127.5t-110 86t-150 31.5q-153 0 -249.5 -98t-112.5 -304zM356 1384q0 40 28.5 63t78.5 23q49 0 78.5 -23t29.5 -63q0 -38 -29.5 -61.5t-78.5 -23.5q-50 0 -78.5 23.5t-28.5 61.5zM728 1384 q0 40 29 63t77 23q50 0 80 -23t30 -63q0 -38 -30 -61.5t-80 -23.5q-48 0 -77 23.5t-29 61.5z" />
<glyph unicode="&#x4eb;" horiz-adv-x="1096" d="M105 456q0 230 114.5 357t330.5 127q111 0 195 -35.5t138.5 -100t81.5 -153t27 -195.5q0 -227 -115.5 -354t-326.5 -127q-115 0 -199.5 36t-139.5 99.5t-80.5 152.5t-25.5 193zM265 1103q0 42 27.5 70t73.5 28q43 0 70 -28t27 -70q0 -40 -27 -67.5t-70 -27.5 q-45 0 -73 27.5t-28 67.5zM274 513h548q-21 145 -91 218t-181 73q-52 0 -99 -15t-85.5 -49.5t-62.5 -90.5t-29 -136zM275 399q14 -136 89.5 -212t185.5 -76q48 0 93.5 16t82 50t61 88.5t32.5 133.5h-544zM639 1103q0 42 27 70t72 28t72 -28t27 -70q0 -40 -27 -67.5 t-72 -27.5t-72 27.5t-27 67.5z" />
<glyph unicode="&#x4ec;" horiz-adv-x="1098" d="M78 26l45 150q44 -21 114.5 -34.5t150.5 -13.5q75 0 148 21.5t131.5 70.5t97.5 129.5t48 195.5h-533v149h531q-17 203 -126.5 299.5t-284.5 97.5q-92 2 -163 -17t-114 -44l-41 140q57 33 147 52t189 19q122 0 227.5 -35t183.5 -110.5t123.5 -195.5t45.5 -291 q0 -172 -52.5 -292.5t-138.5 -196t-198.5 -109.5t-232.5 -34q-96 0 -171.5 15t-126.5 34zM138 1384q0 40 28.5 63t78.5 23q49 0 78.5 -23t29.5 -63q0 -38 -29.5 -61.5t-78.5 -23.5q-50 0 -78.5 23.5t-28.5 61.5zM510 1384q0 40 29 63t77 23q50 0 80 -23t30 -63 q0 -38 -30 -61.5t-80 -23.5q-48 0 -77 23.5t-29 61.5z" />
<glyph unicode="&#x4ed;" horiz-adv-x="945" d="M83 35l45 132q46 -24 112 -40t132 -16q141 0 213.5 67.5t84.5 215.5h-421v136h419q-10 124 -82.5 199t-208.5 75q-81 0 -141 -21.5t-100 -46.5l-53 119q61 40 141 62.5t188 22.5q110 0 191 -33t134 -95.5t78.5 -152t25.5 -203.5q0 -232 -118.5 -356.5t-325.5 -124.5 q-94 0 -177.5 15t-136.5 45zM107 1103q0 42 27.5 70t73.5 28q43 0 70 -28t27 -70q0 -40 -27 -67.5t-70 -27.5q-45 0 -73 27.5t-28 67.5zM481 1103q0 42 27 70t72 28t72 -28t27 -70q0 -40 -27 -67.5t-72 -27.5t-72 27.5t-27 67.5z" />
<glyph unicode="&#x4ee;" horiz-adv-x="1058" d="M8 1219h201l332 -627l47 -155h11l37 160l246 622h178l-341 -805q-50 -116 -88.5 -197t-79.5 -131.5t-88 -73t-115 -22.5q-62 0 -99.5 9t-72.5 31l50 143q37 -22 69 -26t60 -4q50 0 86 44t64 133zM260 1319v119h609v-119h-609z" />
<glyph unicode="&#x4ef;" horiz-adv-x="923" d="M14 914h190l233 -578l54 -176h22l44 177l190 577h163l-299 -827q-33 -85 -67 -165t-75 -142t-90.5 -99.5t-114.5 -37.5q-69 0 -118 16l27 135q26 -8 51 -8q35 0 64 9t53.5 31.5t44 63t37.5 105.5zM178 1040v119h571v-119h-571z" />
<glyph unicode="&#x4f0;" horiz-adv-x="1058" d="M8 1219h201l332 -627l47 -155h11l37 160l246 622h178l-341 -805q-50 -116 -88.5 -197t-79.5 -131.5t-88 -73t-115 -22.5q-62 0 -99.5 9t-72.5 31l50 143q37 -22 69 -26t60 -4q50 0 86 44t64 133zM271 1384q0 40 28.5 63t78.5 23q49 0 78.5 -23t29.5 -63 q0 -38 -29.5 -61.5t-78.5 -23.5q-50 0 -78.5 23.5t-28.5 61.5zM643 1384q0 40 29 63t77 23q50 0 80 -23t30 -63q0 -38 -30 -61.5t-80 -23.5q-48 0 -77 23.5t-29 61.5z" />
<glyph unicode="&#x4f1;" horiz-adv-x="923" d="M14 914h190l233 -578l54 -176h22l44 177l190 577h163l-299 -827q-33 -85 -67 -165t-75 -142t-90.5 -99.5t-114.5 -37.5q-69 0 -118 16l27 135q26 -8 51 -8q35 0 64 9t53.5 31.5t44 63t37.5 105.5zM199 1103q0 42 27.5 70t73.5 28q43 0 70 -28t27 -70q0 -40 -27 -67.5 t-70 -27.5q-45 0 -73 27.5t-28 67.5zM573 1103q0 42 27 70t72 28t72 -28t27 -70q0 -40 -27 -67.5t-72 -27.5t-72 27.5t-27 67.5z" />
<glyph unicode="&#x4f2;" horiz-adv-x="1058" d="M8 1219h201l332 -627l47 -155h11l37 160l246 622h178l-341 -805q-50 -116 -88.5 -197t-79.5 -131.5t-88 -73t-115 -22.5q-62 0 -99.5 9t-72.5 31l50 143q37 -22 69 -26t60 -4q50 0 86 44t64 133zM326 1290l119 190h188v-28l-189 -162h-118zM571 1290l193 190h200v-28 l-273 -162h-120z" />
<glyph unicode="&#x4f3;" horiz-adv-x="923" d="M14 914h190l233 -578l54 -176h22l44 177l190 577h163l-299 -827q-33 -85 -67 -165t-75 -142t-90.5 -99.5t-114.5 -37.5q-69 0 -118 16l27 135q26 -8 51 -8q35 0 64 9t53.5 31.5t44 63t37.5 105.5zM294 1062l68 224h157v-20l-139 -204h-86zM525 1062l142 224h176v-19 l-230 -205h-88z" />
<glyph unicode="&#x4f4;" horiz-adv-x="1153" d="M133 797v422h173v-385q0 -117 56 -180.5t176 -63.5q88 0 164 21t123 55v553h175v-1219h-175v518q-50 -28 -134.5 -53t-194.5 -25q-81 0 -148.5 19.5t-115.5 63t-73.5 110.5t-25.5 164zM291 1384q0 40 28.5 63t78.5 23q49 0 78.5 -23t29.5 -63q0 -38 -29.5 -61.5 t-78.5 -23.5q-50 0 -78.5 23.5t-28.5 61.5zM663 1384q0 40 29 63t77 23q50 0 80 -23t30 -63q0 -38 -30 -61.5t-80 -23.5q-48 0 -77 23.5t-29 61.5z" />
<glyph unicode="&#x4f5;" horiz-adv-x="998" d="M105 646v268h159v-225q0 -56 6.5 -99t26.5 -74.5t55.5 -48.5t92.5 -17q89 0 149 20.5t92 44.5v399h160v-914h-160v388q-33 -21 -101 -47t-181 -26q-73 0 -129.5 16t-94 54t-56.5 101.5t-19 159.5zM187 1103q0 42 27.5 70t73.5 28q43 0 70 -28t27 -70q0 -40 -27 -67.5 t-70 -27.5q-45 0 -73 27.5t-28 67.5zM561 1103q0 42 27 70t72 28t72 -28t27 -70q0 -40 -27 -67.5t-72 -27.5t-72 27.5t-27 67.5z" />
<glyph unicode="&#x4f6;" horiz-adv-x="845" d="M155 0v1219h722v-154h-548v-912h167v-376h-120l-28 223h-193z" />
<glyph unicode="&#x4f7;" horiz-adv-x="741" d="M153 0v914h588v-136h-427v-642h141v-352h-114l-27 216h-161z" />
<glyph unicode="&#x4f8;" horiz-adv-x="1472" d="M155 12v1207h174v-465q10 2 27.5 4.5t39.5 4t45.5 3.5t45.5 2q90 0 176 -17.5t152 -60t105 -114t39 -179.5q0 -105 -37.5 -183t-103.5 -128.5t-158 -75.5t-204 -25q-26 0 -62.5 0.5t-77.5 4t-83 8.5t-78 14zM329 144q25 -6 60.5 -8t80.5 -2q65 0 120.5 16t96.5 47t64 78 t23 110q0 70 -26 115t-68 71t-99 36.5t-119 10.5q-34 0 -74 -5t-59 -10v-459zM442 1384q0 40 28.5 63t78.5 23q49 0 78.5 -23t29.5 -63q0 -38 -29.5 -61.5t-78.5 -23.5q-50 0 -78.5 23.5t-28.5 61.5zM814 1384q0 40 29 63t77 23q50 0 80 -23t30 -63q0 -38 -30 -61.5 t-80 -23.5q-48 0 -77 23.5t-29 61.5zM1144 0v1219h174v-1219h-174z" />
<glyph unicode="&#x4f9;" horiz-adv-x="1342" d="M153 -2v916h161v-350q56 9 103.5 11.5t85.5 2.5q101 0 169.5 -21t110.5 -57.5t59.5 -86t17.5 -107.5q0 -166 -101 -241t-329 -75q-73 0 -141 1.5t-136 6.5zM314 136q73 -10 149 -11q125 0 175.5 43.5t50.5 123.5q0 70 -49.5 117t-171.5 47q-33 0 -73.5 -3t-80.5 -11v-306 zM371 1103q0 42 27.5 70t73.5 28q43 0 70 -28t27 -70q0 -40 -27 -67.5t-70 -27.5q-45 0 -73 27.5t-28 67.5zM745 1103q0 42 27 70t72 28t72 -28t27 -70q0 -40 -27 -67.5t-72 -27.5t-72 27.5t-27 67.5zM1028 0v914h161v-914h-161z" />
<glyph unicode="&#x4fc;" horiz-adv-x="1184" d="M47 0l440 620l-402 599h207l263 -400l48 -102l45 102l274 400h192l-414 -587l263 -374q60 -82 87.5 -151.5t27.5 -143.5q0 -161 -66.5 -245t-202.5 -84q-33 0 -69 6v148q53 -2 85.5 9.5t51 31.5t24.5 47.5t6 58.5q0 80 -31.5 142t-66.5 113l-166 235l-58 106l-49 -106 l-297 -425h-192z" />
<glyph unicode="&#x4fd;" horiz-adv-x="1030" d="M52 0l353 467l-330 447h202l175 -237l68 -119l68 119l181 237h183l-336 -439l198 -254q56 -70 88.5 -130.5t32.5 -130.5q0 -158 -73 -242t-216 -84h-13q-13 0 -25.5 1t-26.5 3v132q110 0 151.5 42t41.5 122q0 69 -34 118t-74 99l-88 113l-75 121l-68 -124l-200 -261h-183 z" />
<glyph unicode="&#x2000;" horiz-adv-x="758" />
<glyph unicode="&#x2001;" horiz-adv-x="1516" />
<glyph unicode="&#x2002;" horiz-adv-x="758" />
<glyph unicode="&#x2003;" horiz-adv-x="1516" />
<glyph unicode="&#x2004;" horiz-adv-x="505" />
<glyph unicode="&#x2005;" horiz-adv-x="379" />
<glyph unicode="&#x2006;" horiz-adv-x="252" />
<glyph unicode="&#x2007;" horiz-adv-x="252" />
<glyph unicode="&#x2008;" horiz-adv-x="189" />
<glyph unicode="&#x2009;" horiz-adv-x="303" />
<glyph unicode="&#x200a;" horiz-adv-x="84" />
<glyph unicode="&#x2010;" horiz-adv-x="685" d="M111 428v150h464v-150h-464z" />
<glyph unicode="&#x2011;" horiz-adv-x="685" d="M111 428v150h464v-150h-464z" />
<glyph unicode="&#x2012;" horiz-adv-x="685" d="M111 428v150h464v-150h-464z" />
<glyph unicode="&#x2013;" horiz-adv-x="1259" d="M223 427v149h815v-149h-815z" />
<glyph unicode="&#x2014;" horiz-adv-x="1564" d="M223 427v149h1119v-149h-1119z" />
<glyph unicode="&#x2018;" horiz-adv-x="377" d="M76 1118q0 59 18.5 102.5t45 72t55.5 46t52 24.5l47 -69q-42 -20 -67.5 -51.5t-22.5 -76.5q45 9 72 -17t27 -71q0 -42 -29.5 -66.5t-75.5 -24.5q-56 0 -89 33t-33 98z" />
<glyph unicode="&#x2019;" horiz-adv-x="377" d="M76 1140q0 42 29 67t74 25q56 0 90 -33t34 -97q0 -62 -19.5 -105t-46 -72.5t-56.5 -46t-50 -23.5l-49 71q41 20 68.5 50t25.5 75q-45 -8 -72.5 18t-27.5 71z" />
<glyph unicode="&#x201a;" horiz-adv-x="377" d="M76 88q0 42 29 67.5t74 25.5q56 0 90 -33t34 -98q0 -61 -19.5 -104.5t-46 -72.5t-56.5 -46t-50 -23l-49 71q41 20 68.5 50t25.5 75q-45 -8 -72.5 17.5t-27.5 70.5z" />
<glyph unicode="&#x201c;" horiz-adv-x="659" d="M76 1118q0 59 18.5 102.5t45 72t55.5 46t52 24.5l47 -69q-42 -20 -67.5 -51.5t-22.5 -76.5q45 9 72 -17t27 -71q0 -42 -29.5 -66.5t-75.5 -24.5q-56 0 -89 33t-33 98zM359 1118q0 59 18 102.5t44 72t56 46t53 24.5l46 -69q-41 -20 -67.5 -51.5t-23.5 -76.5q45 9 72.5 -17 t27.5 -71q0 -42 -30 -66.5t-75 -24.5q-56 0 -88.5 33t-32.5 98z" />
<glyph unicode="&#x201d;" horiz-adv-x="659" d="M76 1138q0 42 29 67.5t74 25.5q56 0 90 -33.5t34 -97.5q0 -61 -19.5 -104.5t-46 -73t-56.5 -46t-50 -23.5l-49 71q41 20 68.5 50.5t25.5 75.5q-45 -9 -72.5 17t-27.5 71zM359 1138q0 42 28.5 67.5t74.5 25.5q56 0 89.5 -33.5t33.5 -97.5q0 -61 -19 -104.5t-46 -73 t-56.5 -46t-51.5 -23.5l-48 71q41 20 68.5 50.5t25.5 75.5q-45 -9 -72 17t-27 71z" />
<glyph unicode="&#x201e;" horiz-adv-x="659" d="M76 88q0 42 29 67.5t74 25.5q56 0 90 -33t34 -98q0 -61 -19.5 -104.5t-46 -72.5t-56.5 -46t-50 -23l-49 71q41 20 68.5 50t25.5 75q-45 -8 -72.5 17.5t-27.5 70.5zM359 88q0 42 28.5 67.5t74.5 25.5q56 0 89.5 -33t33.5 -98q0 -61 -19 -104.5t-46 -72.5t-56.5 -46 t-51.5 -23l-48 71q41 20 68.5 50t25.5 75q-45 -8 -72 17.5t-27 70.5z" />
<glyph unicode="&#x2022;" horiz-adv-x="861" d="M162 541q0 54 22 99.5t58.5 78.5t85 51.5t102.5 18.5t103.5 -17.5t86 -49t58.5 -77.5t22 -104q0 -57 -22 -103t-58.5 -77.5t-85.5 -49t-102 -17.5q-56 0 -104.5 17.5t-85 49t-58.5 77.5t-22 103z" />
<glyph unicode="&#x2026;" horiz-adv-x="1427" d="M125 88q0 51 32.5 80.5t84.5 29.5t84.5 -29.5t32.5 -80.5q0 -46 -32.5 -77.5t-84.5 -31.5t-84.5 31.5t-32.5 77.5zM601 88q0 51 32 80.5t84 29.5t84.5 -29.5t32.5 -80.5q0 -46 -32.5 -77.5t-84.5 -31.5q-51 0 -83.5 31.5t-32.5 77.5zM1076 88q0 51 32 80.5t85 29.5 q51 0 83.5 -29.5t32.5 -80.5q0 -46 -32.5 -77.5t-83.5 -31.5q-52 0 -84.5 31.5t-32.5 77.5z" />
<glyph unicode="&#x202f;" horiz-adv-x="303" />
<glyph unicode="&#x2039;" horiz-adv-x="566" d="M70 450l306 401l103 -92l-176 -235l-92 -72l92 -62l188 -230l-104 -94z" />
<glyph unicode="&#x203a;" horiz-adv-x="566" d="M76 759l105 92l317 -384l-307 -401l-104 90l177 238l93 71l-93 63z" />
<glyph unicode="&#x205f;" horiz-adv-x="379" />
<glyph unicode="&#x20ac;" d="M12 418l36 130h105q-2 14 -2 29.5v31.5v34t2 34h-141l36 127h121q23 115 73 198t120 136t156 78t182 25q99 0 170.5 -14t123.5 -33l-47 -139q-43 19 -101.5 29.5t-142.5 10.5q-63 0 -120.5 -16t-104 -51.5t-82.5 -90.5t-55 -133h531l-35 -127l-513 -1q-2 -17 -2 -34v-34 v-32t2 -29l475 1l-35 -130h-425q73 -294 390 -295q77 0 137 17.5t106 42.5l40 -129q-58 -44 -145 -60.5t-171 -16.5q-212 0 -350.5 107t-178.5 334h-155z" />
<glyph unicode="&#x2122;" horiz-adv-x="1696" d="M66 1080v139h674v-139h-255v-488h-165v488h-254zM813 592v627h162l196 -287l53 -103h2l55 106l183 284h164v-627h-155v282l20 179h-8l-73 -148l-162 -235h-75l-163 234l-70 149h-9l27 -177v-284h-147z" />
<glyph unicode="&#x25fc;" horiz-adv-x="913" d="M0 0v914h914v-914h-914z" />
</font>
</defs>
</svg>
